<svg xmlns="http://www.w3.org/2000/svg" width="1200" height="1200" viewBox="0 0 1200 1200"><title>Grafika 5 – Proces z elementem pośrednim i bez elementu pośredniego</title>
<desc>Grafika 5 – Proces z elementem pośrednim i bez elementu pośredniego</desc><g class="layer"><path fill="#f5f5f5" d="M.1 0h1200v1200H.1V0zm0 0"/><path fill="red" fill-rule="evenodd" d="M486 224.5c.4 1.6.9 4 1.2 5.3.6 2.4.5 2.5-12.6 4.7-7.4 1.3-43.2 7.9-79.8 14.8-36.5 6.8-84.9 15.8-107.4 19.9-22.5 4.1-41.2 7.5-41.5 7.6-.3.2.1 3 .8 6.3l1.3 6.1 26.7-4.8c14.7-2.7 42.2-7.8 61.2-11.3 18.9-3.5 45.9-8.5 59.9-11s40.6-7.5 59.1-11.1c18.5-3.5 34.1-6.4 34.6-6.4s1.5 2.4 2.1 5.4l1.2 5.4 22.2-13.2c12.1-7.2 21.4-13.2 20.6-13.3-5.4-.9-48.7-7.3-49.3-7.3-.5 0-.6 1.3-.2 2.9h-.1zm181.2 2.8c-.3 3.2-.4 5.8-.4 5.9.1.1 52.5 7 116.6 15.3 64 8.3 117.8 15.4 119.5 15.7l3.2.6-.6 5.4c-.3 2.9-.3 5.4 0 5.4.2 0 10.7-2.3 23.1-5 12.5-2.8 22.9-5 23.2-5 .2 0 .4-.5.4-1 0-.6-9.8-6-21.9-12l-21.9-11-.7 5.5c-.5 4.1-1.1 5.5-2.3 5.5-1.8 0-29.4-3.5-59.1-7.5-46.8-6.2-79.7-10.6-83.4-11-2.2-.3-13.7-1.8-25.5-3.5-11.8-1.6-30.9-4.1-42.5-5.5-11.5-1.4-22.4-2.7-24.1-3l-3.1-.5-.5 5.7zm248.1 492.8v6.1H241.8v12h673.5v6.5c0 3.5.2 6.5.4 6.5.8 0 41-18.2 41.8-19 .5-.4-28.2-12.9-41.4-17.9-.5-.1-.8 2.4-.8 5.8zm0 0"/><path fill="#f5f5f5" d="M910.1 714.4h47.1v42.2h-47.1v-42.2zm-28.3-466.1c2.6-12.3 20.5-18.9 40.1-14.8 19.6 4.1 33.4 17.4 30.8 29.7-2.6 12.3-20.6 18.9-40.2 14.8-19.5-4.1-33.3-17.4-30.7-29.7zm-350.7-18.5c-.2-.9.1-1.6.7-1.7.5-.2 1.1.4 1.3 1.2.2.8-.1 1.6-.7 1.7-.5.1-1.1-.4-1.3-1.3v.1zm0 0"/><path fill-rule="evenodd" stroke="#fff" d="M.2.8h1199.9l-.5 1198.6-1199.5.5L.2.8zm.5 600c0 329.8.2 464.9.3 300.2.1-164.7.1-434.5 0-599.6C.9 136.3.7 271.1.7 600.8zm5.5 399.3h1187V6.8H6.2v993.3zm611.5-840.9c14.8 3.4 29.8 13.5 38.3 25.8 8.8 12.6 12.3 24.5 11.4 39.9-1.5 27.8-22 51.6-50.3 58.2-8.7 2.1-26.5 1.5-33.9-1-28.1-9.7-44.9-30.8-46.2-58-.5-12.5 1.3-20.8 7-31.9 8.2-15.8 24.8-28.7 42.2-32.9 8-2 23.4-2 31.5-.1zm414.7 56c14.7 3.4 29.7 13.5 38.3 25.7 8.8 12.7 12.2 24.6 11.4 39.9-1.5 27.8-22.1 51.7-50.4 58.3-8.7 2-26.5 1.5-33.8-1-28.2-9.7-45-30.8-46.2-58-.6-12.6 1.2-20.8 7-31.9 8.2-15.9 24.7-28.8 42.2-33 7.9-1.9 23.4-1.9 31.5 0zm-834.3 18.9c14.7 3.5 29.7 13.6 38.3 25.8 8.8 12.6 12.2 24.6 11.4 39.9-1.5 27.8-22.1 51.6-50.3 58.3-8.7 2-26.5 1.5-33.9-1.1-28.2-9.6-45-30.7-46.2-58-.6-12.5 1.2-20.7 7-31.8 8.2-15.9 24.7-28.8 42.2-33 8-1.9 23.4-1.9 31.5-.1zm841.3 434.7c14.7 3.5 29.7 13.6 38.3 25.8 8.8 12.6 12.2 24.6 11.4 39.9-1.5 27.8-22.1 51.6-50.4 58.3-8.7 2-26.5 1.5-33.8-1.1-28.2-9.7-45-30.8-46.2-58-.6-12.5 1.2-20.7 6.9-31.8 8.2-15.9 24.8-28.8 42.3-33 7.9-1.9 23.4-2 31.5-.1zm-847.3 2c14.7 3.5 29.7 13.6 38.3 25.8 8.8 12.6 12.2 24.6 11.4 39.9-1.5 27.8-22.1 51.6-50.3 58.3-8.7 2-26.5 1.5-33.9-1.1-28.2-9.7-45-30.8-46.2-58-.6-12.5 1.2-20.8 7-31.8 8.2-15.9 24.8-28.8 42.2-33 8-1.9 23.4-2 31.5-.1zm0 0"/><path d="M1010.4 380.3c-2.4 0-4.3.87-5.7 2.6-1.4 1.73-2.1 4.1-2.1 7.1 0 3.13.67 5.5 2 7.1 1.33 1.67 3.27 2.5 5.8 2.5a12.01 12.01 0 0 0 3.1-.4c1.07-.2 2.13-.47 3.2-.8v3.6c-2 .73-4.27 1.1-6.8 1.1-3.8 0-6.7-1.14-8.7-3.4-2-2.27-3-5.53-3-9.8 0-2.67.47-5 1.4-7 1-2 2.44-3.53 4.3-4.6 1.87-1.07 4.03-1.6 6.5-1.6 2.6 0 5.03.57 7.3 1.7l-1.5 3.5a27.28 27.28 0 0 0-2.8-1.1 8.79 8.79 0 0 0-3-.5zm0 0"/><path fill-rule="evenodd" d="M1030.3 403.1c-3 0-5.37-.87-7.1-2.6-1.67-1.8-2.53-4.23-2.6-7.3 0-3.13.8-5.63 2.4-7.5 1.6-1.8 3.77-2.7 6.5-2.7 2.6 0 4.63.77 6.1 2.3 1.47 1.6 2.2 3.77 2.2 6.5v2.2h-12.9c.07 1.87.57 3.3 1.5 4.3 1 1.07 2.37 1.6 4.1 1.6 1.13 0 2.2-.13 3.2-.4 1-.2 2.07-.54 3.2-1v3.3c-1 .47-2.03.8-3.1 1-1 .2-2.17.3-3.5.3zm-.8-17c-1.27 0-2.3.43-3.1 1.3-.8.8-1.27 2-1.4 3.6h8.8c-.07-1.6-.47-2.8-1.2-3.6-.73-.87-1.77-1.3-3.1-1.3zm0 0"/><path d="M1046.6 402.8h-4.1v-27.4h4.1v27.4zM1010.4 827c-2.4 0-4.3.87-5.7 2.6-1.4 1.73-2.1 4.1-2.1 7.1 0 3.13.67 5.5 2 7.1 1.33 1.66 3.27 2.5 5.8 2.5 1.07 0 2.1-.13 3.1-.4 1.07-.2 2.13-.47 3.2-.8v3.6c-2 .8-4.27 1.2-6.8 1.2-3.8 0-6.7-1.17-8.7-3.5-2-2.27-3-5.5-3-9.7 0-2.74.47-5.1 1.4-7.1 1-2 2.44-3.53 4.3-4.6 1.87-1 4.03-1.5 6.5-1.5 2.6-.07 5.03.46 7.3 1.6l-1.5 3.5a26.41 26.41 0 0 0-2.8-1.1 8.89 8.89 0 0 0-3-.5zm0 0"/><path fill-rule="evenodd" d="M1030.3 849.9c-3 0-5.37-.9-7.1-2.7-1.67-1.73-2.53-4.16-2.6-7.3 0-3.13.8-5.63 2.4-7.5 1.6-1.8 3.77-2.7 6.5-2.7 2.6 0 4.63.77 6.1 2.3 1.47 1.6 2.2 3.77 2.2 6.5v2.2h-12.9c.07 1.87.57 3.34 1.5 4.4 1 1 2.37 1.5 4.1 1.5 1.13 0 2.2-.1 3.2-.3 1-.26 2.07-.63 3.2-1.1v3.3c-1 .47-2.03.8-3.1 1-1 .2-2.17.33-3.5.4zm-.8-17.1c-1.27 0-2.3.43-3.1 1.3-.8.8-1.27 2-1.4 3.6h8.8c-.07-1.6-.47-2.8-1.2-3.6-.73-.87-1.77-1.3-3.1-1.3zm0 0"/><path d="M1046.6 849.5h-4.1v-27.4h4.1v27.4zM471.4 332.7h-14.6V307h14.5v3.5H461v7h9.7v3.5H461v8.1h10.3l.1 3.6zm9.2 0h-4.1v-27.4h4.1v27.4zm0 0"/><path fill-rule="evenodd" d="M495 333c-3.07 0-5.43-.87-7.1-2.6-1.73-1.8-2.6-4.23-2.6-7.3 0-3.2.8-5.7 2.4-7.5 1.6-1.8 3.77-2.7 6.5-2.7 2.53 0 4.57.77 6.1 2.3 1.47 1.6 2.2 3.77 2.2 6.5v2.2h-12.9c.07 1.87.57 3.3 1.5 4.3.93 1.07 2.3 1.6 4.1 1.6a12.28 12.28 0 0 0 3.2-.4c.93-.2 2-.57 3.2-1.1v3.4c-1.07.47-2.1.8-3.1 1-1 .2-2.17.3-3.5.3zm-.8-17c-1.33 0-2.37.43-3.1 1.3-.8.8-1.27 2-1.4 3.6h8.8c-.07-1.6-.47-2.8-1.2-3.6-.73-.87-1.77-1.3-3.1-1.3zm0 0"/><path d="M523.6 332.7h-4.2v-12c0-1.47-.27-2.57-.8-3.3-.6-.73-1.47-1.1-2.6-1.1-1.6 0-2.8.5-3.6 1.5-.73 1.07-1.1 2.8-1.1 5.2v9.7h-4.1v-19.4h3.2l.6 2.5h.2c.53-.93 1.34-1.67 2.4-2.2 1-.47 2.13-.7 3.4-.7 2.93 0 4.9 1 5.9 3h.3c.53-.93 1.34-1.67 2.4-2.2 1.07-.53 2.27-.8 3.6-.8 2.34 0 4 .56 5 1.7 1.07 1.2 1.6 3 1.6 5.4v12.7h-4.1v-12c0-1.47-.3-2.57-.9-3.3-.53-.73-1.4-1.1-2.6-1.1-1.6 0-2.77.5-3.5 1.5s-1.1 2.53-1.1 4.6v10.3zm0 0"/><path fill-rule="evenodd" d="M550.1 333c-3.07 0-5.43-.87-7.1-2.6-1.73-1.8-2.6-4.23-2.6-7.3 0-3.2.8-5.7 2.4-7.5 1.6-1.8 3.77-2.7 6.5-2.7 2.6 0 4.63.77 6.1 2.3 1.47 1.6 2.2 3.77 2.2 6.5v2.2h-12.9c.07 1.87.57 3.3 1.5 4.3.93 1.07 2.3 1.6 4.1 1.6 1.13 0 2.2-.13 3.2-.4 1-.2 2.07-.57 3.2-1.1v3.4c-1 .47-2.03.8-3.1 1-1 .2-2.17.3-3.5.3zm-.8-17c-1.27 0-2.3.43-3.1 1.3-.8.8-1.27 2-1.4 3.6h8.8c-.07-1.6-.47-2.8-1.2-3.6-.73-.87-1.77-1.3-3.1-1.3zm0 0"/><path d="M579.4 332.7h-4.1v-12c0-1.47-.3-2.57-.9-3.3-.67-.73-1.63-1.1-2.9-1.1-1.73 0-3.03.5-3.9 1.5-.8 1.07-1.2 2.8-1.2 5.2v9.7h-4.1v-19.4h3.3l.5 2.5h.2c.6-.93 1.43-1.67 2.5-2.2a9.32 9.32 0 0 1 3.6-.7c4.67 0 7 2.37 7 7.1v12.7zm13-3c1 0 2-.17 3-.5v3.1c-.47.2-1.07.37-1.8.5-.67.13-1.4.2-2.2.2-3.93 0-5.9-2.07-5.9-6.2v-10.4h-2.6v-1.9l2.8-1.5 1.4-4.1h2.6v4.4h5.5v3.1h-5.5v10.4c0 1 .23 1.74.7 2.2.53.47 1.2.7 2 .7zm0 0"/><path fill-rule="evenodd" d="M618.5 333c-2.47 0-4.4-.87-5.8-2.6h-.2c.13 1.6.2 2.6.2 3v7.9h-4.1v-28.1l3.4.1c.07.33.27 1.17.6 2.5h.1c1.34-1.93 3.3-2.9 5.9-2.9 2.4 0 4.27.87 5.6 2.6 1.34 1.8 2 4.27 2 7.4 0 3.2-.66 5.7-2 7.5-1.4 1.73-3.3 2.6-5.7 2.6zm-1-16.7c-1.67 0-2.87.47-3.6 1.4-.8.93-1.2 2.47-1.2 4.6v.6c0 2.4.4 4.14 1.2 5.2.73 1 1.97 1.5 3.7 1.5 1.4 0 2.5-.56 3.3-1.7.73-1.2 1.1-2.86 1.1-5 0-2.2-.37-3.86-1.1-5-.8-1.07-1.93-1.6-3.4-1.6zm30.8 6.6c0 3.2-.83 5.7-2.5 7.5-1.6 1.73-3.87 2.6-6.8 2.6-1.8 0-3.4-.4-4.8-1.2-1.4-.8-2.47-1.97-3.2-3.5s-1.1-3.33-1.1-5.4c0-3.13.8-5.6 2.4-7.4 1.6-1.73 3.87-2.6 6.8-2.6 2.87 0 5.1.9 6.7 2.7 1.67 1.8 2.5 4.23 2.5 7.3zm-14.2 0c0 4.47 1.67 6.7 5 6.7 3.27 0 4.9-2.23 4.9-6.7 0-4.4-1.63-6.6-4.9-6.6-1.73 0-3 .57-3.8 1.7-.8 1.13-1.2 2.77-1.2 4.9zm32 4.2c0 1.93-.7 3.4-2.1 4.4-1.4 1-3.37 1.5-5.9 1.5-2.6 0-4.7-.4-6.3-1.2v-3.5c2.27 1.07 4.4 1.6 6.4 1.6 2.53 0 3.8-.77 3.8-2.3 0-.53-.13-.97-.4-1.3-.27-.33-.73-.67-1.4-1a48.7 48.7 0 0 0-2.7-1.2c-2.27-.87-3.77-1.73-4.5-2.6-.8-.87-1.2-2-1.2-3.4 0-1.67.67-2.93 2-3.8 1.33-.93 3.17-1.4 5.5-1.4 2.27 0 4.4.47 6.4 1.4l-1.3 3.1c-2.07-.86-3.83-1.3-5.3-1.3-2.2 0-3.3.6-3.3 1.8 0 .67.3 1.2.9 1.6.53.4 1.77.96 3.7 1.7 1.6.67 2.77 1.23 3.5 1.7.73.53 1.27 1.13 1.6 1.8.4.67.6 1.47.6 2.4zm-9.7-16.2v-.5c.67-.8 1.37-1.7 2.1-2.7.67-1 1.23-1.87 1.7-2.6h4.8v.4c-.6.73-1.53 1.63-2.8 2.7-1.2 1.13-2.2 2.03-3 2.7h-2.8zm0 0"/><path d="M680.4 312.9c.8 0 1.47.07 2 .2l-.4 3.8c-.6-.13-1.2-.2-1.8-.2-1.66 0-3 .53-4 1.6-1.07 1.07-1.6 2.47-1.6 4.2v10.2h-4.1v-19.4h3.3l.5 3.4h.2c.67-1.2 1.5-2.13 2.5-2.8 1.07-.67 2.2-1 3.4-1zm0 0"/><path fill-rule="evenodd" d="M694.5 333c-3 0-5.37-.87-7.1-2.6-1.67-1.8-2.5-4.23-2.5-7.3 0-3.2.77-5.7 2.3-7.5 1.6-1.8 3.8-2.7 6.6-2.7 2.53 0 4.53.77 6 2.3 1.53 1.6 2.3 3.77 2.3 6.5v2.2h-13c.07 1.87.57 3.3 1.5 4.3 1 1.07 2.37 1.6 4.1 1.6a12.28 12.28 0 0 0 3.2-.4c1-.2 2.07-.57 3.2-1.1v3.4c-1 .47-2 .8-3 1-1.07.2-2.27.3-3.6.3zm-.7-17c-1.33 0-2.4.43-3.2 1.3-.8.8-1.27 2-1.4 3.6h8.8c0-1.6-.37-2.8-1.1-3.6-.8-.87-1.83-1.3-3.1-1.3zm19.5 17c-2.4 0-4.3-.87-5.7-2.6-1.33-1.73-2-4.2-2-7.4s.7-5.67 2.1-7.4c1.33-1.8 3.23-2.7 5.7-2.7 2.53 0 4.47.93 5.8 2.8h.2c-.2-1.4-.3-2.5-.3-3.3v-7.1h4.2v27.4H720l-.7-2.6h-.2c-1.33 1.93-3.27 2.9-5.8 2.9zm1.1-3.3c1.73 0 2.97-.47 3.7-1.4.8-1 1.2-2.57 1.2-4.7v-.6c0-2.4-.4-4.13-1.2-5.2-.8-1-2.03-1.5-3.7-1.5-1.47 0-2.6.57-3.4 1.7-.8 1.2-1.2 2.9-1.2 5.1 0 2.13.4 3.77 1.2 4.9.73 1.13 1.87 1.7 3.4 1.7zm0 0"/><path d="M746.3 332.7h-4.2v-12c0-1.47-.3-2.57-.9-3.3-.6-.73-1.57-1.1-2.9-1.1-1.73 0-3 .5-3.8 1.5-.8 1.07-1.2 2.8-1.2 5.2v9.7h-4.1v-19.4h3.2l.6 2.5h.2c.6-.93 1.43-1.67 2.5-2.2 1.07-.47 2.27-.7 3.6-.7 4.67 0 7 2.37 7 7.1v12.7zm0 0"/><path fill-rule="evenodd" d="M756.1 332.7H752v-19.4h4.1v19.4zm-4.4-24.6c0-.73.23-1.3.7-1.7.4-.4.97-.6 1.7-.6s1.3.2 1.7.6c.4.4.6.97.6 1.7 0 .67-.2 1.2-.6 1.6-.4.4-.97.6-1.7.6s-1.3-.2-1.7-.6c-.47-.4-.7-.93-.7-1.6zm0 0"/><path d="M472.7 373.3h-4.1v-12c0-1.47-.27-2.57-.8-3.3-.6-.73-1.5-1.1-2.7-1.1-1.6 0-2.77.53-3.5 1.6-.73 1-1.1 2.7-1.1 5.1v9.7h-4.1v-19.4h3.2l.6 2.5h.2c.53-.87 1.3-1.57 2.3-2.1a7.49 7.49 0 0 1 3.4-.8c3 0 5 1.04 6 3.1h.2c.6-.93 1.43-1.67 2.5-2.2 1-.6 2.17-.9 3.5-.9 2.33 0 4.03.6 5.1 1.8 1.07 1.13 1.6 2.93 1.6 5.4v12.6h-4.1v-12c0-1.47-.3-2.57-.9-3.3-.53-.73-1.4-1.1-2.6-1.1-1.6 0-2.77.5-3.5 1.5-.8 1-1.2 2.53-1.2 4.6v10.3zm0 0"/><path fill-rule="evenodd" d="M508 363.6c0 3.13-.8 5.6-2.4 7.4-1.67 1.8-3.93 2.7-6.8 2.7-1.87 0-3.47-.43-4.8-1.3-1.4-.8-2.5-1.97-3.3-3.5-.73-1.53-1.1-3.3-1.1-5.3 0-3.2.8-5.67 2.4-7.4 1.6-1.8 3.9-2.7 6.9-2.7 2.8 0 5 .9 6.6 2.7 1.67 1.87 2.5 4.33 2.5 7.4zm-14.1 0c0 4.47 1.63 6.7 4.9 6.7 3.27 0 4.9-2.23 4.9-6.7 0-4.47-1.63-6.7-4.9-6.7-1.73 0-3 .57-3.8 1.7-.73 1.2-1.1 2.87-1.1 5zm35.2-9.7v2.3l-3.3.6c.33.4.6.9.8 1.5.2.6.3 1.23.3 1.9 0 2-.7 3.57-2.1 4.7-1.4 1.14-3.3 1.7-5.7 1.7-.6 0-1.17-.03-1.7-.1-.87.54-1.3 1.17-1.3 1.9 0 .47.2.8.6 1 .4.27 1.17.4 2.3.4h3.4c2.14 0 3.73.43 4.8 1.3 1.13.94 1.7 2.27 1.7 4 0 2.2-.9 3.9-2.7 5.1-1.8 1.2-4.43 1.8-7.9 1.8-2.6 0-4.6-.46-6-1.4-1.4-.93-2.1-2.27-2.1-4 0-1.2.37-2.23 1.1-3.1.74-.8 1.8-1.37 3.2-1.7-.53-.2-1-.57-1.4-1.1-.33-.53-.5-1.07-.5-1.6 0-.73.2-1.37.6-1.9.4-.47 1-.97 1.8-1.5-1-.4-1.8-1.1-2.4-2.1-.67-1-1-2.13-1-3.4 0-2.13.67-3.77 2-4.9 1.33-1.2 3.23-1.8 5.7-1.8a9.34 9.34 0 0 1 1.8.2c.6.07 1.03.13 1.3.2h6.7zm-15.2 22.5c0 .87.4 1.53 1.2 2 .8.47 1.93.7 3.4.7 2.2 0 3.87-.33 5-1 1.07-.6 1.6-1.43 1.6-2.5 0-.87-.3-1.47-.9-1.8-.6-.4-1.7-.6-3.3-.6h-3.2c-1.2 0-2.13.3-2.8.9-.66.53-1 1.3-1 2.3zm1.7-16.2c0 1.2.33 2.13 1 2.8.6.67 1.5 1 2.7 1 2.33 0 3.53-1.3 3.6-3.9-.07-1.2-.37-2.17-.9-2.9-.6-.67-1.5-1-2.7-1-1.2 0-2.1.33-2.7 1-.67.67-1 1.67-1 3zm29.3 13.1-.8-2.7h-.2c-.93 1.2-1.86 2-2.8 2.4-.93.47-2.13.7-3.6.7-1.93 0-3.43-.53-4.5-1.6-1.07-1-1.6-2.47-1.6-4.4 0-1.93.73-3.43 2.2-4.5 1.47-1 3.73-1.53 6.8-1.6l3.4-.2v-1c-.07-1.27-.37-2.2-.9-2.8-.6-.6-1.5-.9-2.7-.9-1 0-1.97.13-2.9.4-.87.33-1.73.7-2.6 1.1l-1.3-3c1-.53 2.14-.93 3.4-1.2 1.27-.33 2.47-.5 3.6-.5 2.47 0 4.33.57 5.6 1.7 1.27 1.07 1.9 2.73 1.9 5v13.1h-3zm-6.2-2.8c1.47 0 2.67-.4 3.6-1.2.93-.87 1.4-2.07 1.4-3.6V364l-2.5.1c-1.93.13-3.37.47-4.3 1-.86.6-1.3 1.5-1.3 2.7 0 .87.27 1.53.8 2s1.3.7 2.3.7zm7.2 4.9c.4-.6 1-1.3 1.8-2.1h-2.6c-1.06.87-1.83 1.63-2.3 2.3-.47.73-.7 1.5-.7 2.3 0 1.14.37 2.03 1.1 2.7.67.67 1.67 1 3 1 .8 0 1.6-.13 2.4-.4v-2.5c-.73.2-1.33.3-1.8.3-1.07 0-1.6-.53-1.6-1.6 0-.67.23-1.33.7-2zm0 0"/><path d="M561.4 373.7c-2.93 0-5.17-.87-6.7-2.6-1.47-1.73-2.2-4.2-2.2-7.4 0-3.27.77-5.77 2.3-7.5 1.6-1.8 3.93-2.7 7-2.7 2 0 3.83.4 5.5 1.2l-1.2 3.3c-1.8-.67-3.27-1-4.4-1-3.33 0-5 2.23-5 6.7 0 2.13.43 3.76 1.3 4.9.8 1.07 2 1.6 3.6 1.6 1.87 0 3.6-.43 5.2-1.3v3.6c-.73.4-1.5.7-2.3.9-.87.2-1.9.3-3.1.3zm7.1-19.8h4.5l3.9 11c.6 1.6 1 3.07 1.2 4.4h.2c.07-.6.24-1.37.5-2.3.33-.93 1.83-5.3 4.5-13.1h4.4l-8.3 22c-1.47 4.07-3.97 6.1-7.5 6.1-.93 0-1.83-.1-2.7-.3v-3.3a11.01 11.01 0 0 0 2.2.2c1.93 0 3.3-1.17 4.1-3.5l.8-1.8-7.8-19.4zm47.9 19.4h-4.1v-12c0-1.47-.3-2.57-.9-3.3-.53-.73-1.4-1.1-2.6-1.1-1.6 0-2.76.53-3.5 1.6-.73 1-1.1 2.7-1.1 5.1v9.7H600v-19.4h3.3l.6 2.5h.2c.53-.87 1.3-1.57 2.3-2.1 1-.53 2.13-.8 3.4-.8 3 0 4.97 1.04 5.9 3.1h.3a6.4 6.4 0 0 1 2.4-2.2c1.07-.6 2.27-.9 3.6-.9 2.33 0 4.03.6 5.1 1.8 1.07 1.13 1.6 2.93 1.6 5.4v12.6h-4.2v-12c0-1.47-.27-2.57-.8-3.3-.6-.73-1.47-1.1-2.6-1.1-1.67 0-2.87.5-3.6 1.5s-1.1 2.53-1.1 4.6v10.3zm17.4-2.2c0-.87.23-1.53.7-2 .4-.4 1.03-.6 1.9-.6.87 0 1.53.23 2 .7.4.47.6 1.1.6 1.9 0 .86-.23 1.53-.7 2-.4.47-1.03.7-1.9.7-.87 0-1.5-.23-1.9-.7-.47-.47-.7-1.14-.7-2zm0 0"/><path fill-rule="evenodd" d="M648.4 373.3h-4.1v-19.4h4.1v19.4zm-4.3-24.6c0-.74.2-1.3.6-1.7.4-.4.97-.6 1.7-.6s1.3.2 1.7.6c.4.4.6.96.6 1.7 0 .73-.2 1.3-.6 1.7-.4.4-.97.6-1.7.6s-1.3-.2-1.7-.6c-.4-.4-.6-.97-.6-1.7zm0 0"/><path d="M671.4 373.3h-4.1v-11.9c0-1.53-.3-2.67-.9-3.4-.6-.73-1.57-1.1-2.9-1.1-1.73 0-3 .5-3.8 1.5-.8 1.07-1.2 2.8-1.2 5.2v9.7h-4.1v-19.4h3.2l.5 2.5h.3c.53-.86 1.37-1.57 2.5-2.1 1.07-.53 2.27-.8 3.6-.8 4.6 0 6.9 2.4 6.9 7.2v12.6zm5.2-2.2c0-.87.2-1.53.6-2 .47-.4 1.13-.6 2-.6.8 0 1.43.23 1.9.7s.7 1.1.7 1.9c0 .86-.23 1.53-.7 2s-1.1.7-1.9.7c-.87 0-1.53-.23-2-.7-.4-.47-.6-1.14-.6-2zM472.7 414h-4.1v-12c0-1.46-.27-2.57-.8-3.3-.6-.74-1.5-1.1-2.7-1.1-1.6 0-2.77.5-3.5 1.5-.73 1.07-1.1 2.8-1.1 5.2v9.7h-4.1v-19.5h3.2l.6 2.6h.2c.53-.93 1.3-1.67 2.3-2.2a8.43 8.43 0 0 1 3.4-.7c3 0 5 1.03 6 3.1h.2a5.98 5.98 0 0 1 2.5-2.3c1-.54 2.17-.8 3.5-.8 2.33 0 4.03.57 5.1 1.7 1.07 1.2 1.6 3 1.6 5.4V414h-4.1v-12c0-1.46-.3-2.57-.9-3.3-.53-.74-1.4-1.1-2.6-1.1-1.6 0-2.77.5-3.5 1.5-.8 1-1.2 2.53-1.2 4.6V414zm0 0"/><path fill-rule="evenodd" d="M508 404.2c0 3.2-.8 5.7-2.4 7.5-1.67 1.73-3.93 2.6-6.8 2.6-1.87 0-3.47-.4-4.8-1.2-1.4-.8-2.5-1.97-3.3-3.5-.73-1.53-1.1-3.33-1.1-5.4 0-3.13.8-5.6 2.4-7.4 1.6-1.73 3.9-2.6 6.9-2.6 2.8 0 5 .9 6.6 2.7 1.67 1.8 2.5 4.23 2.5 7.3zm-14.1 0c0 4.47 1.63 6.7 4.9 6.7 3.27 0 4.9-2.23 4.9-6.7 0-4.4-1.63-6.6-4.9-6.6-1.73 0-3 .57-3.8 1.7-.73 1.13-1.1 2.77-1.1 4.9zm25.4 10.1c-2.4 0-4.3-.87-5.7-2.6-1.33-1.74-2-4.2-2-7.4s.67-5.67 2-7.4c1.4-1.8 3.33-2.7 5.8-2.7 2.53 0 4.47.93 5.8 2.8h.2c-.2-1.4-.3-2.5-.3-3.3v-7.1h4.1V414H526l-.7-2.6h-.2c-1.33 1.93-3.27 2.9-5.8 2.9zm1.1-3.3c1.67 0 2.9-.46 3.7-1.4.73-1 1.13-2.57 1.2-4.7v-.6c0-2.4-.4-4.13-1.2-5.2-.8-1-2.07-1.5-3.8-1.5-1.4 0-2.5.57-3.3 1.7-.8 1.2-1.2 2.9-1.2 5.1 0 2.13.4 3.77 1.2 4.9.73 1.13 1.87 1.7 3.4 1.7zm0 0"/><path d="M532.2 394.5h4.5l3.9 11.1c.6 1.53 1 3 1.2 4.4h.2c.07-.67.27-1.46.6-2.4.27-.87 1.73-5.23 4.4-13.1h4.5l-8.3 22c-1.53 4.07-4.07 6.1-7.6 6.1-.87 0-1.73-.1-2.6-.3V419c.6.2 1.3.3 2.1.3 2 0 3.4-1.17 4.2-3.5l.7-1.8-7.8-19.5zm0 0"/><path fill-rule="evenodd" d="M564.2 397.7h-4.8V414h-4.1v-16.3h-3.2v-2l3.2-1.2v-1.3c0-2.27.53-3.97 1.6-5.1 1.07-1.14 2.7-1.7 4.9-1.7 1.47 0 2.9.27 4.3.8l-1 3.1c-1.07-.34-2.07-.5-3-.5-.93 0-1.6.3-2 .9-.47.53-.7 1.4-.7 2.6v1.2h4.8v3.2zm7.3 16.3h-4.1v-19.4h4.1V414zm-4.3-24.6c0-.73.2-1.3.6-1.7.4-.4.97-.6 1.7-.6s1.3.2 1.7.6c.4.4.6.97.6 1.7s-.2 1.3-.6 1.7c-.4.4-.97.6-1.7.6s-1.3-.2-1.7-.6c-.4-.4-.6-.97-.6-1.7zm0 0"/><path d="m581.5 403.7 2.4-2.9 5.8-6.3h4.8l-7.8 8.4L595 414h-4.9l-6.2-8.6-2.3 1.9v6.7h-4.1v-27.4h4.1V400l-.2 3.7h.1zm0 0"/><path fill-rule="evenodd" d="M615.3 404.2c0 3.2-.8 5.7-2.4 7.5-1.67 1.73-3.93 2.6-6.8 2.6-1.8 0-3.4-.4-4.8-1.2-1.4-.8-2.47-1.97-3.2-3.5-.8-1.53-1.2-3.33-1.2-5.4 0-3.13.83-5.6 2.5-7.4 1.6-1.73 3.87-2.6 6.8-2.6 2.8 0 5.03.9 6.7 2.7 1.6 1.8 2.4 4.23 2.4 7.3zm-14.1 0c0 4.47 1.63 6.7 4.9 6.7 3.33 0 5-2.23 5-6.7 0-4.4-1.67-6.6-5-6.6-1.73 0-3 .57-3.8 1.7-.73 1.13-1.1 2.77-1.1 4.9zm0 0"/><path d="m636 414-2.5-9.1c-.33-.93-.9-3.17-1.7-6.7h-.1c-.73 3.2-1.27 5.43-1.6 6.7l-2.6 9.1h-4.6l-5.4-19.5h4.2l2.4 9.6c.6 2.4 1.03 4.43 1.3 6.1h.1c.07-.87.23-1.83.5-2.9.27-1.13.47-1.97.6-2.5l3-10.3h4.5l2.9 10.3c.13.53.33 1.4.6 2.6.27 1.2.43 2.14.5 2.8h.1c.2-1.47.63-3.5 1.3-6.1l2.5-9.6h4.1l-5.5 19.5H636zm0 0"/><path fill-rule="evenodd" d="m661.6 414-.8-2.7h-.2c-.93 1.13-1.87 1.93-2.8 2.4-.93.4-2.13.6-3.6.6-1.93 0-3.43-.5-4.5-1.5-1.07-1.07-1.6-2.53-1.6-4.4 0-2 .73-3.5 2.2-4.5 1.47-1.07 3.73-1.63 6.8-1.7l3.4-.1v-1c0-1.27-.3-2.2-.9-2.8-.6-.6-1.5-.9-2.7-.9-1 0-1.97.14-2.9.4-.87.27-1.73.6-2.6 1l-1.3-2.9c1-.6 2.13-1.03 3.4-1.3a17.32 17.32 0 0 1 3.6-.4c2.47 0 4.33.53 5.6 1.6 1.27 1.07 1.9 2.77 1.9 5.1V414h-3zm-6.2-2.8c1.53 0 2.73-.43 3.6-1.3.93-.87 1.4-2.03 1.4-3.5v-1.7l-2.5.1c-1.93.07-3.37.4-4.3 1-.87.6-1.3 1.47-1.3 2.6 0 .87.27 1.57.8 2.1.53.47 1.3.7 2.3.7zm22.7 3.1c-2.93 0-5.17-.87-6.7-2.6-1.53-1.67-2.3-4.1-2.3-7.3.07-3.27.87-5.8 2.4-7.6 1.6-1.73 3.93-2.6 7-2.6 2 0 3.83.37 5.5 1.1l-1.2 3.3c-1.8-.67-3.27-1-4.4-1-3.33 0-5 2.23-5 6.7 0 2.2.4 3.83 1.2 4.9.87 1.13 2.1 1.7 3.7 1.7 1.87 0 3.63-.47 5.3-1.4v3.6c-.8.4-1.6.7-2.4.9-.87.2-1.9.3-3.1.3zm-2.4-22.1v-.5c.67-.8 1.37-1.7 2.1-2.7.67-1 1.23-1.87 1.7-2.6h4.7v.4c-.6.74-1.5 1.67-2.7 2.8-1.2 1.07-2.2 1.94-3 2.6h-2.8zm0 0"/><path d="M464.2 455c-2.93 0-5.17-.87-6.7-2.6-1.53-1.73-2.3-4.2-2.3-7.4 0-3.27.8-5.77 2.4-7.5 1.6-1.8 3.9-2.7 6.9-2.7 2.07 0 3.93.4 5.6 1.2l-1.3 3.3c-1.73-.67-3.17-1-4.3-1-3.33 0-5 2.24-5 6.7 0 2.13.4 3.77 1.2 4.9.87 1.07 2.1 1.6 3.7 1.6 1.87 0 3.6-.46 5.2-1.4v3.7c-.73.4-1.5.7-2.3.9-.87.2-1.9.3-3.1.3zm27.1-.4h-4.2v-11.9c0-1.53-.3-2.67-.9-3.4-.6-.73-1.53-1.1-2.8-1.1-1.73 0-3.03.53-3.9 1.6-.8 1-1.2 2.73-1.2 5.2v9.6h-4.1v-27.3h4.1v6.9c0 1.13-.07 2.33-.2 3.6h.3c.53-.93 1.3-1.67 2.3-2.2 1-.54 2.17-.8 3.5-.8 4.73 0 7.1 2.4 7.1 7.2v12.6zm0 0"/><path fill-rule="evenodd" d="m509.2 454.6-.9-2.7h-.1c-.93 1.2-1.87 2-2.8 2.4-1 .47-2.23.7-3.7.7-1.87 0-3.37-.54-4.5-1.6-1.07-1-1.6-2.47-1.6-4.4 0-2 .77-3.5 2.3-4.5 1.47-1 3.73-1.57 6.8-1.7l3.3-.1v-1c0-1.27-.3-2.2-.9-2.8-.53-.6-1.4-.9-2.6-.9-1 0-1.96.13-2.9.4-.93.33-1.8.7-2.6 1.1l-1.4-3a14.28 14.28 0 0 1 3.5-1.2c1.27-.34 2.44-.5 3.5-.5 2.47 0 4.33.57 5.6 1.7 1.27 1.07 1.9 2.73 1.9 5v13.1h-2.9zm-6.1-2.8c1.47 0 2.67-.4 3.6-1.2.87-.87 1.3-2.06 1.3-3.6v-1.7l-2.5.1c-1.93.14-3.33.47-4.2 1-.87.6-1.3 1.5-1.3 2.7 0 .87.23 1.53.7 2 .53.47 1.33.7 2.4.7zm0 0"/><path d="M527.7 434.8c.87 0 1.57.07 2.1.2l-.4 3.9a5.7 5.7 0 0 0-1.8-.3c-1.67 0-3.03.57-4.1 1.7-1 1.07-1.5 2.47-1.5 4.2v10.1h-4.1v-19.4h3.2l.6 3.4h.2a6.92 6.92 0 0 1 2.5-2.7c1-.73 2.1-1.1 3.3-1.1zm0 0"/><path fill-rule="evenodd" d="m545.6 454.6-.9-2.7h-.1c-.93 1.2-1.9 2-2.9 2.4-.93.47-2.13.7-3.6.7-1.93 0-3.43-.54-4.5-1.6-1.07-1-1.6-2.47-1.6-4.4 0-2 .73-3.5 2.2-4.5 1.53-1 3.84-1.57 6.9-1.7l3.3-.1v-1c0-1.27-.3-2.2-.9-2.8-.53-.6-1.43-.9-2.7-.9-1 0-1.93.13-2.8.4-.93.33-1.83.7-2.7 1.1l-1.3-3a14.33 14.33 0 0 1 3.5-1.2c1.2-.34 2.37-.5 3.5-.5 2.47 0 4.33.57 5.6 1.7 1.27 1.07 1.9 2.73 1.9 5v13.1h-2.9zm-6.2-2.8c1.53 0 2.77-.4 3.7-1.2.87-.87 1.3-2.06 1.3-3.6v-1.7l-2.5.1c-1.93.14-3.33.47-4.2 1-.87.6-1.3 1.5-1.3 2.7 0 .87.23 1.53.7 2 .53.47 1.3.7 2.3.7zm0 0"/><path d="m558.2 444.4 2.4-3 5.8-6.2h4.8l-7.8 8.3 8.3 11.1h-4.9l-6.2-8.5-2.3 1.9v6.6h-4.1v-27.3h4.1v13.3l-.2 3.8h.1zm23.9 7.2c1 0 2-.17 3-.5v3.2c-.47.2-1.07.37-1.8.5s-1.47.2-2.2.2c-3.93 0-5.9-2.07-5.9-6.2v-10.5h-2.6v-1.8l2.8-1.5 1.4-4.1h2.6v4.3h5.5v3.1h-5.5v10.4c0 1 .23 1.73.7 2.2.47.47 1.13.7 2 .7zm0 0"/><path fill-rule="evenodd" d="M597.4 455c-3 0-5.33-.9-7-2.7-1.73-1.73-2.6-4.13-2.6-7.2 0-3.2.8-5.7 2.4-7.5 1.6-1.87 3.77-2.8 6.5-2.8 2.53 0 4.57.8 6.1 2.4 1.47 1.53 2.2 3.67 2.2 6.4v2.2h-12.9c0 1.93.5 3.4 1.5 4.4.93 1 2.27 1.5 4 1.5 1.2 0 2.27-.1 3.2-.3 1-.2 2.07-.57 3.2-1.1v3.3c-1 .53-2 .9-3 1.1-1.07.2-2.27.3-3.6.3zm-.7-17c-1.33 0-2.4.4-3.2 1.2-.8.87-1.27 2.07-1.4 3.6h8.8c0-1.6-.36-2.8-1.1-3.6-.73-.8-1.76-1.2-3.1-1.2zm0 0"/><path d="M619.5 434.8c.87 0 1.57.07 2.1.2l-.4 3.9a5.66 5.66 0 0 0-1.8-.3c-1.67 0-3.03.57-4.1 1.7-1 1.07-1.5 2.47-1.5 4.2v10.1h-4.1v-19.4h3.2l.6 3.4h.2a6.97 6.97 0 0 1 2.5-2.7c1-.73 2.1-1.1 3.3-1.1zm31.4 19.8h-4.1v-12c0-1.47-.3-2.57-.9-3.3-.53-.73-1.4-1.1-2.6-1.1-1.6 0-2.76.53-3.5 1.6-.73 1-1.1 2.7-1.1 5.1v9.7h-4.2v-19.4h3.3l.5 2.5h.3c.53-.87 1.3-1.57 2.3-2.1 1-.53 2.13-.8 3.4-.8 3 0 4.97 1.03 5.9 3.1h.3a7.2 7.2 0 0 1 2.4-2.3c1.07-.53 2.27-.8 3.6-.8 2.33 0 4.03.6 5.1 1.8 1.07 1.13 1.6 2.94 1.6 5.4v12.6H659v-12c0-1.47-.27-2.57-.8-3.3-.6-.73-1.47-1.1-2.6-1.1-1.67 0-2.87.5-3.6 1.5s-1.1 2.53-1.1 4.6v10.3zm0 0"/><path fill-rule="evenodd" d="M686.2 444.9c0 3.14-.83 5.6-2.5 7.4-1.6 1.8-3.87 2.7-6.8 2.7-1.8 0-3.4-.43-4.8-1.3-1.4-.8-2.47-1.97-3.2-3.5s-1.1-3.3-1.1-5.3c0-3.2.8-5.67 2.4-7.4 1.6-1.8 3.87-2.7 6.8-2.7 2.8 0 5.04.93 6.7 2.8 1.67 1.8 2.5 4.23 2.5 7.3zm-14.2 0c0 4.47 1.67 6.7 5 6.7 3.27 0 4.9-2.23 4.9-6.7 0-4.47-1.67-6.7-5-6.7-1.67 0-2.9.57-3.7 1.7-.8 1.2-1.2 2.87-1.2 5zm0 0"/><path d="M698.1 451.6c1 0 2-.17 3-.5v3.2c-.4.2-.97.37-1.7.5s-1.5.2-2.3.2c-3.87 0-5.8-2.07-5.8-6.2v-10.5h-2.7v-1.8l2.9-1.5 1.4-4.1h2.5v4.3h5.6v3.1h-5.6v10.4c0 1 .27 1.73.8 2.2.47.47 1.1.7 1.9.7zm4-16.4h4.5l3.9 11c.6 1.6 1 3.07 1.2 4.4h.2c.07-.6.27-1.37.6-2.3.27-.93 1.73-5.3 4.4-13.1h4.5l-8.3 22c-1.53 4.07-4.06 6.1-7.6 6.1a12.01 12.01 0 0 1-2.7-.3v-3.3c.67.13 1.4.2 2.2.2 2 0 3.37-1.17 4.1-3.5l.8-1.8-7.8-19.4zm38.1 19.4-2.5-9.1c-.27-.93-.8-3.13-1.6-6.6h-.2c-.67 3.14-1.2 5.37-1.6 6.7l-2.6 9h-4.5l-5.5-19.4h4.2l2.5 9.6c.53 2.33.93 4.33 1.2 6h.1c.13-.8.3-1.77.5-2.9.27-1.13.5-1.97.7-2.5l2.9-10.2h4.5l2.9 10.2c.2.6.43 1.5.7 2.7.27 1.13.4 2.03.4 2.7h.2c.13-1.47.53-3.47 1.2-6l2.5-9.6h4.1l-5.4 19.4h-4.7zm0 0"/><path fill-rule="evenodd" d="m765.9 454.6-.9-2.7h-.1c-.93 1.2-1.86 2-2.8 2.4-1 .47-2.23.7-3.7.7-1.93 0-3.43-.54-4.5-1.6-1.07-1-1.6-2.47-1.6-4.4 0-2 .77-3.5 2.3-4.5 1.47-1 3.73-1.57 6.8-1.7l3.3-.1v-1c0-1.27-.3-2.2-.9-2.8-.53-.6-1.43-.9-2.7-.9-1 0-1.93.13-2.8.4-.93.33-1.8.7-2.6 1.1l-1.4-3a14.33 14.33 0 0 1 3.5-1.2c1.2-.34 2.37-.5 3.5-.5 2.47 0 4.33.57 5.6 1.7 1.27 1.07 1.9 2.73 1.9 5v13.1h-2.9zm-6.1-2.8c1.47 0 2.67-.4 3.6-1.2.87-.87 1.3-2.06 1.3-3.6v-1.7l-2.5.1c-1.93.14-3.33.47-4.2 1-.87.6-1.3 1.5-1.3 2.7 0 .87.23 1.53.7 2 .53.47 1.33.7 2.4.7zm0 0"/><path d="M782.4 455c-2.93 0-5.17-.87-6.7-2.6-1.53-1.73-2.3-4.2-2.3-7.4 0-3.27.8-5.77 2.4-7.5 1.6-1.8 3.9-2.7 6.9-2.7 2.07 0 3.93.4 5.6 1.2l-1.3 3.3c-1.73-.67-3.17-1-4.3-1-3.4 0-5.07 2.24-5 6.7 0 2.13.4 3.77 1.2 4.9.87 1.07 2.1 1.6 3.7 1.6 1.87 0 3.6-.46 5.2-1.4v3.7c-.73.4-1.53.7-2.4.9-.8.2-1.8.3-3 .3zm0 0"/><path fill-rule="evenodd" d="M790.4 463.3c-1.27 0-2.3-.17-3.1-.5v-3.3c.8.27 1.6.4 2.4.4 1.8 0 2.7-1 2.7-3v-21.7h4.1v22c0 2-.53 3.5-1.6 4.5-1.07 1.07-2.57 1.6-4.5 1.6zm1.7-33.3c0-.73.2-1.3.6-1.7.4-.33 1-.53 1.8-.6.73.07 1.3.26 1.7.6.4.4.6.97.6 1.7s-.2 1.3-.6 1.7c-.4.4-.97.6-1.7.6-.8 0-1.4-.2-1.8-.6-.4-.4-.6-.97-.6-1.7zm14.4 24.6h-4.1v-19.4h4.1v19.4zm-4.4-24.6c0-.73.23-1.3.7-1.7.4-.4.97-.6 1.7-.6s1.3.2 1.7.6c.4.4.6.97.6 1.7s-.2 1.3-.6 1.7c-.4.4-.97.6-1.7.6s-1.3-.2-1.7-.6c-.47-.4-.7-.97-.7-1.7zm0 0"/><path d="m472.3 495.3-2.5-9.1c-.33-.93-.87-3.17-1.6-6.7h-.2c-.67 3.2-1.2 5.43-1.6 6.7l-2.6 9.1h-4.6l-5.4-19.5h4.2l2.5 9.6c.54 2.4.93 4.43 1.2 6.1h.1c.13-.87.3-1.83.5-2.9.27-1.14.47-1.97.6-2.5l3-10.3h4.5l2.9 10.3c.13.53.33 1.4.6 2.6.27 1.2.43 2.13.5 2.8h.1c.2-1.46.63-3.5 1.3-6.1l2.5-9.6h4.1l-5.5 19.5h-4.6zm0 0"/><path fill-rule="evenodd" d="M505 495.6c-2.46 0-4.4-.87-5.8-2.6h-.2c.13 1.6.2 2.57.2 2.9v8h-4.1v-28.1h3.4c.07.4.23 1.27.5 2.6h.2c1.33-1.93 3.27-2.9 5.8-2.9 2.47 0 4.37.87 5.7 2.6 1.33 1.8 2 4.27 2 7.4 0 3.2-.66 5.7-2 7.5-1.4 1.73-3.3 2.6-5.7 2.6zm-1-16.7c-1.67 0-2.87.47-3.6 1.4-.8.93-1.2 2.47-1.2 4.6v.6c0 2.4.4 4.13 1.2 5.2.73 1 1.93 1.5 3.6 1.5 1.47 0 2.57-.57 3.3-1.7.8-1.2 1.2-2.87 1.2-5 0-2.2-.4-3.87-1.2-5-.73-1.07-1.83-1.6-3.3-1.6zm0 0"/><path d="M527.4 475.5c.8 0 1.47.07 2 .2l-.4 3.8c-.6-.13-1.2-.2-1.8-.2-1.66 0-3 .53-4 1.6-1.07 1.07-1.6 2.47-1.6 4.2v10.2h-4.1v-19.5h3.2l.6 3.5h.2c.67-1.2 1.5-2.13 2.5-2.8 1.07-.67 2.2-1 3.4-1zm18.6 19.8h-14.7v-2.6l9.8-13.7h-9.2v-3.2h13.8v2.9l-9.6 13.4h9.9v3.2zm0 0"/><path fill-rule="evenodd" d="M558.7 495.6c-3 0-5.37-.87-7.1-2.6-1.67-1.8-2.5-4.23-2.5-7.3 0-3.2.77-5.7 2.3-7.5 1.6-1.8 3.77-2.7 6.5-2.7 2.6 0 4.64.77 6.1 2.3 1.47 1.6 2.2 3.77 2.2 6.5v2.2h-12.9c.07 1.87.57 3.3 1.5 4.3 1 1 2.37 1.53 4.1 1.6 1.14 0 2.2-.13 3.2-.4 1-.2 2.07-.57 3.2-1.1v3.4c-1 .47-2.03.8-3.1 1-1 .2-2.16.3-3.5.3zm-.8-17c-1.27 0-2.3.43-3.1 1.3-.8.8-1.26 2-1.4 3.6h8.8c0-1.6-.4-2.8-1.2-3.6-.73-.87-1.77-1.3-3.1-1.3zm23-3.1c2.4 0 4.27.87 5.6 2.6 1.33 1.8 2.03 4.27 2.1 7.4-.07 3.2-.77 5.7-2.1 7.5-1.4 1.73-3.3 2.6-5.7 2.6-2.47 0-4.37-.87-5.7-2.6h-.3l-.8 2.3h-3.1v-27.4h4.2v6.5c0 .53-.03 1.27-.1 2.2-.07.94-.1 1.53-.1 1.8h.2c1.27-1.93 3.2-2.9 5.8-2.9zm-1.1 3.4c-1.67 0-2.87.47-3.6 1.4-.73 1-1.1 2.63-1.1 4.9v.3c0 2.4.37 4.13 1.1 5.2.73 1 1.97 1.5 3.7 1.5 1.47 0 2.57-.57 3.3-1.7s1.1-2.8 1.1-5c0-4.4-1.5-6.6-4.5-6.6zm17.7 16.4h-4.1v-19.5h4.1v19.5zm-4.4-24.5c0-.73.2-1.3.6-1.7.4-.4.97-.6 1.7-.6s1.3.2 1.7.6c.4.4.6.97.6 1.7 0 .67-.2 1.2-.6 1.6-.4.4-.97.6-1.7.6s-1.3-.2-1.7-.6c-.4-.4-.6-.93-.6-1.6zm18.8 24.8c-3.07 0-5.43-.87-7.1-2.6-1.73-1.8-2.6-4.23-2.6-7.3 0-3.2.8-5.7 2.4-7.5 1.6-1.8 3.77-2.7 6.5-2.7 2.53 0 4.57.77 6.1 2.3 1.47 1.6 2.2 3.77 2.2 6.5v2.2h-12.9c.07 1.87.57 3.3 1.5 4.3s2.3 1.53 4.1 1.6c1.13 0 2.2-.13 3.2-.4.93-.2 1.97-.57 3.1-1.1v3.4c-1 .47-2 .8-3 1-1 .2-2.17.3-3.5.3zm-.8-17c-1.33 0-2.37.43-3.1 1.3-.8.8-1.27 2-1.4 3.6h8.8c-.07-1.6-.47-2.8-1.2-3.6-.73-.87-1.77-1.3-3.1-1.3zm29.4-2.8v2.3l-3.3.6c.27.4.5.9.7 1.5.2.6.3 1.23.3 1.9 0 2-.66 3.6-2 4.8-1.4 1.14-3.3 1.7-5.7 1.7-.67 0-1.23-.06-1.7-.2-.93.6-1.4 1.27-1.4 2 0 .4.23.73.7 1 .4.2 1.17.3 2.3.3h3.4c2.13 0 3.74.47 4.8 1.4 1.13.87 1.7 2.17 1.7 3.9 0 2.2-.9 3.9-2.7 5.1-1.8 1.2-4.43 1.8-7.9 1.8-2.67 0-4.7-.47-6.1-1.4-1.33-.93-2-2.27-2-4 0-1.2.37-2.2 1.1-3 .73-.8 1.8-1.37 3.2-1.7-.6-.26-1.07-.63-1.4-1.1a3.15 3.15 0 0 1-.5-1.7c0-.73.2-1.33.6-1.8.4-.53 1-1.03 1.8-1.5-1-.47-1.8-1.17-2.4-2.1-.67-1-1-2.17-1-3.5 0-2.07.67-3.7 2-4.9 1.33-1.13 3.23-1.7 5.7-1.7.53 0 1.1.03 1.7.1.6.07 1.07.13 1.4.2h6.7zm-15.3 22.5c0 .87.4 1.53 1.2 2 .8.53 1.93.8 3.4.8 2.27 0 3.93-.33 5-1 1.13-.67 1.7-1.53 1.7-2.6 0-.8-.3-1.4-.9-1.8-.6-.33-1.73-.5-3.4-.5h-3.1c-1.2 0-2.13.27-2.8.8-.73.6-1.1 1.37-1.1 2.3zm1.8-16.2c0 1.27.3 2.2.9 2.8.67.67 1.57 1 2.7 1 2.4 0 3.6-1.27 3.6-3.8 0-1.27-.3-2.23-.9-2.9-.6-.73-1.5-1.1-2.7-1.1-1.2 0-2.1.37-2.7 1.1-.6.67-.9 1.63-.9 2.9zm29.3 13.2-.9-2.7h-.1c-.93 1.13-1.87 1.94-2.8 2.4-1 .4-2.23.6-3.7.6-1.93 0-3.43-.5-4.5-1.5-1.07-1.06-1.6-2.53-1.6-4.4 0-2 .77-3.5 2.3-4.5 1.47-1.07 3.73-1.63 6.8-1.7l3.3-.1v-1c0-1.27-.3-2.2-.9-2.8-.53-.6-1.4-.9-2.6-.9-1.07 0-2.03.13-2.9.4a14.76 14.76 0 0 0-2.6 1l-1.4-2.9a12.4 12.4 0 0 1 3.5-1.3c1.27-.27 2.43-.4 3.5-.4 2.47 0 4.33.54 5.6 1.6 1.27 1.07 1.9 2.77 1.9 5.1v13.1h-2.9zm-6.1-2.8c1.47 0 2.67-.43 3.6-1.3.87-.87 1.3-2.03 1.3-3.5V486l-2.5.1c-1.93.07-3.33.4-4.2 1-.87.6-1.3 1.47-1.3 2.6 0 .87.23 1.53.7 2 .53.53 1.33.8 2.4.8zm12.8 11.4c-1.27 0-2.3-.13-3.1-.4v-3.3c.8.2 1.6.3 2.4.3 1.8 0 2.7-1 2.7-3v-21.7h4.1v22c0 2-.53 3.53-1.6 4.6-1.07 1-2.57 1.5-4.5 1.5zm1.7-33.2c0-.73.2-1.3.6-1.7.4-.4 1-.6 1.8-.6.73 0 1.3.2 1.7.6.4.4.6.96.6 1.7 0 .73-.2 1.3-.6 1.7-.4.4-.97.6-1.7.6-.8 0-1.4-.2-1.8-.6-.4-.4-.6-.97-.6-1.7zm22.5 24.6-.9-2.7h-.1c-.93 1.13-1.9 1.94-2.9 2.4-.93.4-2.13.6-3.6.6-1.93 0-3.43-.5-4.5-1.5-1.07-1.06-1.6-2.53-1.6-4.4 0-2 .77-3.5 2.3-4.5 1.47-1.07 3.73-1.63 6.8-1.7l3.3-.1v-1c0-1.27-.3-2.2-.9-2.8-.53-.6-1.4-.9-2.6-.9-1 0-1.96.13-2.9.4a14.8 14.8 0 0 0-2.6 1l-1.4-2.9a12.35 12.35 0 0 1 3.5-1.3c1.2-.27 2.37-.4 3.5-.4 2.47 0 4.33.54 5.6 1.6 1.27 1.07 1.9 2.77 1.9 5.1v13.1h-2.9zm-6.1-2.8c1.47 0 2.67-.43 3.6-1.3.87-.87 1.3-2.03 1.3-3.5V486l-2.5.1c-1.93.07-3.33.4-4.2 1-.87.6-1.3 1.47-1.3 2.6 0 .87.23 1.53.7 2 .53.53 1.34.8 2.4.8zm7.1 4.9c.47-.67 1.1-1.36 1.9-2.1h-2.6c-1.13.8-1.9 1.57-2.3 2.3-.47.73-.7 1.47-.7 2.2 0 1.13.33 2.03 1 2.7.67.67 1.67 1 3 1 .8 0 1.63-.13 2.5-.4v-2.5c-.73.2-1.37.3-1.9.3-1 0-1.5-.5-1.5-1.5 0-.73.2-1.4.6-2zm0 0"/><path d="M703.7 495.6c-2.93 0-5.16-.87-6.7-2.6-1.53-1.67-2.3-4.1-2.3-7.3 0-3.27.8-5.8 2.4-7.6 1.6-1.73 3.9-2.6 6.9-2.6 2.07 0 3.93.37 5.6 1.1l-1.3 3.3c-1.73-.67-3.17-1-4.3-1-3.4 0-5.07 2.23-5 6.7 0 2.2.4 3.83 1.2 4.9.87 1.13 2.1 1.7 3.7 1.7 1.87 0 3.6-.47 5.2-1.4v3.6a9.31 9.31 0 0 1-2.4.9c-.8.2-1.8.3-3 .3zm7-19.8h4.5l4 11.1c.6 1.53 1 3 1.2 4.4h.1a29.8 29.8 0 0 1 .6-2.4c.27-.86 1.77-5.23 4.5-13.1h4.4l-8.3 22c-1.53 4.07-4.07 6.1-7.6 6.1-.87 0-1.73-.1-2.6-.3v-3.3c.6.2 1.3.3 2.1.3 2 0 3.4-1.17 4.2-3.5l.7-1.8-7.8-19.5zm38.6 19.5h-4.1v-12c0-1.47-.3-2.57-.9-3.3-.53-.73-1.4-1.1-2.6-1.1-1.6 0-2.77.5-3.5 1.5-.73 1.07-1.1 2.8-1.1 5.2v9.7H733v-19.5h3.2l.6 2.6h.2c.54-.93 1.3-1.67 2.3-2.2 1.07-.47 2.2-.7 3.4-.7 3 0 4.97 1 5.9 3h.3a6.32 6.32 0 0 1 2.4-2.2c1.07-.53 2.27-.8 3.6-.8 2.33 0 4.03.57 5.1 1.7 1.07 1.2 1.6 3 1.6 5.4v12.7h-4.2v-12c0-1.47-.27-2.57-.8-3.3-.6-.73-1.47-1.1-2.6-1.1-1.67 0-2.87.5-3.6 1.5s-1.1 2.53-1.1 4.6v10.3zm0 0"/><path fill-rule="evenodd" d="M466.2 536.3c-2.47 0-4.37-.9-5.7-2.7h-.2c.13 1.67.2 2.67.2 3v8h-4.1v-28.1h3.3c.13.33.34 1.2.6 2.6h.2c1.27-2 3.2-3 5.8-3 2.4 0 4.3.9 5.7 2.7 1.33 1.73 2 4.2 2 7.4 0 3.13-.7 5.6-2.1 7.4-1.33 1.8-3.23 2.7-5.7 2.7zm-1-16.8c-1.6 0-2.8.5-3.6 1.5-.73.93-1.1 2.47-1.1 4.6v.6c0 2.33.37 4.03 1.1 5.1.73 1.07 1.97 1.6 3.7 1.6 1.4 0 2.5-.6 3.3-1.8.8-1.14 1.2-2.8 1.2-5 0-2.14-.4-3.77-1.2-4.9-.73-1.13-1.87-1.7-3.4-1.7zm0 0"/><path d="M488.6 516.1c.87 0 1.57.07 2.1.2l-.4 3.9c-.6-.2-1.2-.3-1.8-.3-1.67 0-3.03.57-4.1 1.7-1 1.07-1.5 2.47-1.5 4.2v10.1h-4.1v-19.4h3.2l.6 3.4h.2a6.99 6.99 0 0 1 2.5-2.7c1-.73 2.1-1.1 3.3-1.1zm0 0"/><path fill-rule="evenodd" d="M511.5 526.2c0 3.13-.8 5.6-2.4 7.4-1.67 1.8-3.93 2.7-6.8 2.7-1.8 0-3.4-.43-4.8-1.3-1.4-.8-2.46-1.97-3.2-3.5-.8-1.53-1.2-3.3-1.2-5.3 0-3.2.83-5.66 2.5-7.4 1.6-1.8 3.87-2.7 6.8-2.7 2.8 0 5.03.9 6.7 2.7 1.6 1.87 2.4 4.33 2.4 7.4zm-14.1 0c0 4.47 1.67 6.7 5 6.7 3.27 0 4.9-2.23 4.9-6.7 0-4.47-1.67-6.7-5-6.7-1.73 0-2.97.57-3.7 1.7-.8 1.2-1.2 2.87-1.2 5zm0 0"/><path d="M524.1 536.3c-2.93 0-5.17-.87-6.7-2.6-1.53-1.74-2.3-4.2-2.3-7.4 0-3.27.8-5.77 2.4-7.5 1.6-1.8 3.9-2.7 6.9-2.7 2.07 0 3.93.4 5.6 1.2l-1.3 3.3c-1.73-.67-3.16-1-4.3-1-3.33 0-5 2.23-5 6.7 0 2.13.4 3.77 1.2 4.9.87 1.07 2.1 1.6 3.7 1.6 1.87 0 3.6-.43 5.2-1.3v3.6a9.42 9.42 0 0 1-2.4.9c-.8.2-1.8.3-3 .3zm0 0"/><path fill-rule="evenodd" d="M542.6 536.3c-3.07 0-5.43-.9-7.1-2.7-1.73-1.73-2.6-4.14-2.6-7.2 0-3.2.8-5.7 2.4-7.5 1.6-1.87 3.77-2.8 6.5-2.8 2.53 0 4.57.8 6.1 2.4 1.47 1.53 2.2 3.67 2.2 6.4v2.2h-12.9c.07 1.93.57 3.4 1.5 4.4.93 1 2.27 1.5 4 1.5a16.9 16.9 0 0 0 3.3-.3c.93-.2 1.97-.57 3.1-1.1v3.4c-1 .47-2 .8-3 1-1 .2-2.17.3-3.5.3zm-.8-17c-1.33 0-2.4.4-3.2 1.2-.73.87-1.2 2.1-1.4 3.7h8.9c-.07-1.66-.47-2.9-1.2-3.7-.73-.8-1.77-1.2-3.1-1.2zm0 0"/><path d="M567.9 530.4c0 1.87-.7 3.33-2.1 4.4-1.4 1-3.4 1.5-6 1.5-2.53 0-4.6-.4-6.2-1.2v-3.6c2.27 1.07 4.4 1.6 6.4 1.6 2.53 0 3.8-.77 3.8-2.3 0-.47-.13-.87-.4-1.2-.33-.33-.8-.67-1.4-1-.67-.4-1.57-.8-2.7-1.2-2.27-.87-3.77-1.73-4.5-2.6-.8-.87-1.2-2-1.2-3.4 0-1.67.67-2.97 2-3.9 1.33-.93 3.17-1.4 5.5-1.4 2.27 0 4.4.47 6.4 1.4l-1.3 3.1c-2.07-.87-3.83-1.3-5.3-1.3-2.2 0-3.3.63-3.3 1.9 0 .6.3 1.13.9 1.6.53.4 1.77.97 3.7 1.7 1.6.6 2.77 1.17 3.5 1.7s1.27 1.13 1.6 1.8c.33.67.53 1.46.6 2.4zm0 0"/><path fill-rule="evenodd" d="M576.4 535.9h-4.1v-19.4h4.1v19.4zm-4.3-24.6c0-.73.2-1.3.6-1.7.4-.4.97-.6 1.7-.6s1.3.2 1.7.6c.4.4.6.97.6 1.7 0 .74-.2 1.3-.6 1.7-.4.4-.97.6-1.7.6s-1.3-.2-1.7-.6c-.4-.4-.6-.97-.6-1.7zm18.7 25c-3 0-5.37-.9-7.1-2.7-1.67-1.73-2.5-4.14-2.5-7.2 0-3.2.8-5.7 2.4-7.5 1.53-1.87 3.7-2.8 6.5-2.8 2.53 0 4.53.8 6 2.4 1.53 1.53 2.3 3.67 2.3 6.4v2.2h-13c.07 1.93.6 3.4 1.6 4.4.93 1 2.27 1.5 4 1.5 1.13 0 2.2-.1 3.2-.3 1-.2 2.07-.57 3.2-1.1v3.4c-1 .47-2 .8-3 1-1.07.2-2.27.3-3.6.3zm-.7-17c-1.33 0-2.4.4-3.2 1.2-.8.87-1.27 2.1-1.4 3.7h8.8c0-1.66-.37-2.9-1.1-3.7-.8-.8-1.83-1.2-3.1-1.2zm0 0"/><path d="M607.4 532.1c-.6 2.2-1.63 5-3.1 8.4h-3.1c.8-3.13 1.4-6.07 1.8-8.8h4.1l.3.4zm0 0"/><path fill-rule="evenodd" d="m634.2 535.9-.9-2.7h-.1c-.93 1.2-1.87 2-2.8 2.4-1 .47-2.23.7-3.7.7-1.87 0-3.37-.53-4.5-1.6-1.07-1-1.6-2.47-1.6-4.4 0-1.93.77-3.43 2.3-4.5 1.47-1 3.73-1.53 6.8-1.6l3.3-.2v-1c0-1.27-.3-2.2-.9-2.8-.53-.6-1.4-.9-2.6-.9-1 0-1.97.13-2.9.4-.93.34-1.8.7-2.6 1.1l-1.4-3a14.28 14.28 0 0 1 3.5-1.2c1.27-.33 2.43-.5 3.5-.5 2.47 0 4.33.57 5.6 1.7 1.27 1.07 1.9 2.74 1.9 5v13.1h-2.9zm-6.1-2.8c1.47 0 2.67-.4 3.6-1.2.87-.87 1.3-2.07 1.3-3.6v-1.7l-2.5.2c-1.93 0-3.33.3-4.2.9-.87.6-1.3 1.5-1.3 2.7 0 .87.23 1.53.7 2 .53.47 1.34.7 2.4.7zm0 0"/><path d="M659.5 532.9c1 0 2-.13 3-.4v3.1c-.47.2-1.07.37-1.8.5s-1.47.2-2.2.2c-3.93 0-5.9-2.07-5.9-6.2v-10.5H650v-1.8l2.8-1.5 1.4-4.1h2.6v4.3h5.5v3.1h-5.5V530c-.07 1 .17 1.73.7 2.2.47.47 1.13.7 2 .7zm3.9-16.4h4.5l4 11c.6 1.6 1 3.07 1.2 4.4h.1c.13-.6.34-1.37.6-2.3.27-.93 1.74-5.3 4.4-13.1h4.5l-8.3 22c-1.53 4.07-4.07 6.1-7.6 6.1-.87 0-1.73-.1-2.6-.3V541c.6.13 1.3.2 2.1.2 2 0 3.4-1.16 4.2-3.5l.7-1.8-7.8-19.4zm38.6 19.4h-4.1v-12c0-1.47-.3-2.57-.9-3.3-.53-.73-1.4-1.1-2.6-1.1-1.6 0-2.77.53-3.5 1.6-.73 1-1.1 2.7-1.1 5.1v9.7h-4.2v-19.4h3.3l.6 2.5h.2a5.05 5.05 0 0 1 2.3-2.1c1-.53 2.13-.8 3.4-.8 3 0 4.97 1.03 5.9 3.1h.3a6.35 6.35 0 0 1 2.4-2.2c1.07-.6 2.27-.9 3.6-.9 2.33 0 4.03.6 5.1 1.8 1.07 1.2 1.6 3 1.6 5.4v12.6h-4.2v-12c0-1.47-.27-2.57-.8-3.3-.6-.73-1.5-1.1-2.7-1.1-1.6 0-2.77.5-3.5 1.5s-1.1 2.53-1.1 4.6v10.3zm40.4-5.5c0 1.87-.67 3.33-2 4.4-1.4 1-3.4 1.5-6 1.5s-4.67-.4-6.2-1.2v-3.6c2.27 1.07 4.4 1.6 6.4 1.6 2.53 0 3.8-.77 3.8-2.3 0-.47-.17-.87-.5-1.2-.27-.33-.7-.67-1.3-1-.67-.4-1.56-.8-2.7-1.2-2.27-.87-3.8-1.73-4.6-2.6-.8-.87-1.2-2-1.2-3.4 0-1.67.67-2.97 2-3.9 1.4-.93 3.23-1.4 5.5-1.4s4.43.47 6.5 1.4l-1.3 3.1c-2.13-.87-3.9-1.3-5.3-1.3-2.2 0-3.3.63-3.3 1.9 0 .6.3 1.13.9 1.6.53.4 1.77.97 3.7 1.7 1.6.6 2.77 1.17 3.5 1.7.74.53 1.27 1.13 1.6 1.8.33.67.5 1.46.5 2.4zm0 0"/><path fill-rule="evenodd" d="m759 535.9-.8-2.7h-.1c-.93 1.2-1.9 2-2.9 2.4-.93.47-2.13.7-3.6.7-1.93 0-3.43-.53-4.5-1.6-1.06-1-1.6-2.47-1.6-4.4 0-1.93.73-3.43 2.2-4.5 1.53-1 3.84-1.53 6.9-1.6l3.3-.2v-1c0-1.27-.3-2.2-.9-2.8-.53-.6-1.43-.9-2.7-.9-1 0-1.93.13-2.8.4-.93.34-1.83.7-2.7 1.1l-1.3-3a14.33 14.33 0 0 1 3.5-1.2c1.2-.33 2.37-.5 3.5-.5 2.47 0 4.33.57 5.6 1.7 1.27 1.07 1.9 2.74 1.9 5v13.1h-3zm-6.2-2.8c1.53 0 2.73-.4 3.6-1.2.93-.87 1.4-2.07 1.4-3.6v-1.7l-2.5.2c-1.93 0-3.33.3-4.2.9-.93.6-1.37 1.5-1.3 2.7 0 .87.23 1.53.7 2 .53.47 1.3.7 2.3.7zm0 0"/><path d="M784.1 535.9H780v-12c0-1.47-.3-2.57-.9-3.3-.53-.73-1.4-1.1-2.6-1.1-1.6 0-2.77.53-3.5 1.6-.73 1-1.1 2.7-1.1 5.1v9.7h-4.2v-19.4h3.3l.6 2.5h.2c.53-.93 1.3-1.63 2.3-2.1 1-.53 2.13-.8 3.4-.8 3 0 4.97 1.03 5.9 3.1h.3a6.39 6.39 0 0 1 2.4-2.2c1.07-.6 2.27-.9 3.6-.9 2.33 0 4.03.6 5.1 1.8 1.07 1.2 1.6 3 1.6 5.4v12.6h-4.2v-12c0-1.47-.26-2.57-.8-3.3-.6-.73-1.46-1.1-2.6-1.1-1.67 0-2.86.5-3.6 1.5-.73 1-1.1 2.53-1.1 4.6v10.3zm15.1-19.4h4.5l3.9 11c.6 1.6 1 3.07 1.2 4.4h.2c.07-.6.27-1.37.6-2.3.27-.93 1.73-5.3 4.4-13.1h4.5l-8.3 22c-1.53 4.07-4.07 6.1-7.6 6.1-.87 0-1.77-.1-2.7-.3V541c.67.13 1.4.2 2.2.2 2 0 3.4-1.16 4.2-3.5l.7-1.8-7.8-19.4zm38.6 19.4h-4.2v-12c0-1.47-.27-2.57-.8-3.3s-1.4-1.1-2.6-1.1c-1.6 0-2.8.53-3.6 1.6-.73 1-1.1 2.7-1.1 5.1v9.7h-4.1v-19.4h3.2l.6 2.5h.2c.53-.93 1.33-1.63 2.4-2.1 1-.53 2.13-.8 3.4-.8 2.93 0 4.9 1.03 5.9 3.1h.3c.53-.93 1.33-1.67 2.4-2.2 1.07-.6 2.27-.9 3.6-.9 2.33 0 4.03.6 5.1 1.8 1.07 1.2 1.6 3 1.6 5.4v12.6h-4.2v-12c0-1.47-.27-2.57-.8-3.3-.6-.73-1.5-1.1-2.7-1.1-1.6 0-2.77.5-3.5 1.5s-1.1 2.53-1.1 4.6v10.3zm-365.5 40.7-2.5-9.1c-.33-.93-.87-3.17-1.6-6.7h-.2c-.67 3.2-1.2 5.43-1.6 6.7l-2.6 9.1h-4.6l-5.4-19.5h4.2l2.5 9.6c.54 2.4.93 4.43 1.2 6.1h.1c.13-.87.3-1.84.5-2.9.27-1.13.47-1.97.6-2.5l3-10.3h4.5l2.9 10.3c.13.53.33 1.4.6 2.6.27 1.2.43 2.13.5 2.8h.1c.2-1.47.63-3.5 1.3-6.1l2.5-9.6h4.1l-5.5 19.5h-4.6zm0 0"/><path fill-rule="evenodd" d="M495.6 576.9c-2.47 0-4.37-.87-5.7-2.6h-.2c.13 1.6.2 2.6.2 3v7.9h-4.1v-28.1h3.3c.07.4.27 1.27.6 2.6h.2c1.27-1.93 3.2-2.9 5.8-2.9 2.4 0 4.27.87 5.6 2.6 1.4 1.8 2.1 4.27 2.1 7.4 0 3.2-.7 5.7-2.1 7.5-1.33 1.74-3.23 2.6-5.7 2.6zm-1-16.7c-1.6 0-2.8.47-3.6 1.4-.73.94-1.1 2.47-1.1 4.6v.6c0 2.4.37 4.13 1.1 5.2.73 1 1.97 1.5 3.7 1.5 1.4 0 2.5-.57 3.3-1.7.73-1.2 1.1-2.87 1.1-5 0-2.2-.37-3.87-1.1-5-.8-1.07-1.93-1.6-3.4-1.6zm0 0"/><path d="m512.5 560.8 1.8-1.2 1.7 2.7-3.5 2.2v12.1h-4.1v-9.5l-1.6 1.1-1.6-2.7 3.2-2.1v-14.2h4.1v11.6zm0 0"/><path d="M515.8 557.1h4.5l4 11c.6 1.6 1 3.1 1.2 4.5h.1c.13-.67.33-1.47.6-2.4.27-.87 1.77-5.24 4.5-13.1h4.4l-8.3 22c-1.53 4.07-4.07 6.1-7.6 6.1-.87 0-1.73-.1-2.6-.3v-3.3c.6.2 1.3.3 2.1.3 2 0 3.4-1.17 4.2-3.5l.7-1.8-7.8-19.5zm38.2 19.5-2.5-9.1c-.33-.93-.9-3.17-1.7-6.7h-.1c-.73 3.2-1.27 5.43-1.6 6.7l-2.6 9.1h-4.6l-5.4-19.5h4.2l2.4 9.6c.6 2.4 1.03 4.43 1.3 6.1h.1c.07-.87.23-1.84.5-2.9.27-1.13.47-1.97.6-2.5l3-10.3h4.5l2.9 10.3c.13.53.33 1.4.6 2.6.27 1.2.43 2.13.5 2.8h.1c.2-1.47.63-3.5 1.3-6.1l2.5-9.6h4.1l-5.5 19.5H554zm0 0"/><path fill-rule="evenodd" d="m579.6 576.6-.8-2.7h-.2c-.93 1.13-1.87 1.93-2.8 2.4-.93.4-2.13.6-3.6.6-1.93 0-3.43-.5-4.5-1.5-1.07-1.07-1.6-2.53-1.6-4.4 0-2 .73-3.5 2.2-4.5 1.47-1.07 3.73-1.63 6.8-1.7l3.4-.1v-1.1c0-1.2-.3-2.1-.9-2.7-.6-.6-1.5-.9-2.7-.9-1 0-1.97.13-2.9.4a21.24 21.24 0 0 0-2.6 1l-1.3-2.9c1-.6 2.13-1.03 3.4-1.3a17.57 17.57 0 0 1 3.6-.4c2.47 0 4.33.53 5.6 1.6 1.27 1.07 1.9 2.77 1.9 5.1v13.1h-3zm-6.2-2.8c1.53 0 2.73-.43 3.6-1.3.93-.87 1.4-2.04 1.4-3.5v-1.7l-2.5.1c-1.93.06-3.37.4-4.3 1-.87.53-1.3 1.4-1.3 2.6 0 .87.27 1.53.8 2 .53.53 1.3.8 2.3.8zm22.7 3.1c-2.93 0-5.17-.83-6.7-2.5-1.53-1.73-2.3-4.2-2.3-7.4.07-3.27.87-5.8 2.4-7.6 1.6-1.73 3.93-2.6 7-2.6 2 0 3.83.37 5.5 1.1l-1.2 3.4c-1.8-.73-3.27-1.1-4.4-1.1-3.33 0-5 2.23-5 6.7 0 2.2.4 3.83 1.2 4.9.87 1.13 2.1 1.7 3.7 1.7 1.87 0 3.63-.46 5.3-1.4v3.6c-.8.47-1.6.77-2.4.9-.87.2-1.9.3-3.1.3zm-2.4-22.1v-.5c.67-.8 1.37-1.7 2.1-2.7.67-1 1.23-1.87 1.7-2.6h4.7v.4c-.6.73-1.5 1.67-2.7 2.8-1.2 1.07-2.2 1.93-3 2.6h-2.8zm0 0"/><path d="M632.6 576.6h-4.2v-12c0-1.47-.3-2.57-.9-3.3-.6-.73-1.57-1.1-2.9-1.1-1.73 0-3 .5-3.8 1.5-.8 1-1.2 2.73-1.2 5.2v9.7h-4.1v-19.5h3.2l.6 2.6h.2c.6-.93 1.43-1.67 2.5-2.2 1.07-.47 2.27-.7 3.6-.7 4.67 0 7 2.37 7 7.1v12.7zm0 0"/><path fill-rule="evenodd" d="m650.5 576.6-.9-2.7h-.1c-.93 1.13-1.9 1.93-2.9 2.4-.93.4-2.13.6-3.6.6-1.93 0-3.43-.5-4.5-1.5-1.07-1.07-1.6-2.53-1.6-4.4 0-2 .73-3.5 2.2-4.5 1.53-1.07 3.83-1.63 6.9-1.7l3.3-.1v-1.1c0-1.2-.3-2.1-.9-2.7-.53-.6-1.43-.9-2.7-.9-1 0-1.93.13-2.8.4-.93.27-1.83.6-2.7 1l-1.3-2.9a12.12 12.12 0 0 1 3.5-1.3c1.2-.27 2.37-.4 3.5-.4 2.47 0 4.33.53 5.6 1.6 1.27 1.07 1.9 2.77 1.9 5.1v13.1h-2.9zm-6.1-2.8c1.47 0 2.67-.43 3.6-1.3.87-.87 1.3-2.04 1.3-3.5v-1.7l-2.5.1c-1.93.06-3.33.4-4.2 1-.87.53-1.3 1.4-1.3 2.6 0 .87.23 1.53.7 2 .53.53 1.33.8 2.4.8zm22.1 11.4c-1.2 0-2.23-.13-3.1-.4v-3.3c.8.2 1.64.3 2.5.3 1.73 0 2.6-1 2.6-3v-21.7h4.1v22c0 2-.5 3.53-1.5 4.6-1.07 1-2.6 1.5-4.6 1.5zm1.8-33.2c-.07-.73.13-1.3.6-1.7.4-.4.97-.6 1.7-.6s1.3.2 1.7.6c.4.4.6.97.6 1.7s-.2 1.3-.6 1.7c-.4.4-.97.6-1.7.6s-1.3-.2-1.7-.6c-.47-.4-.7-.97-.7-1.7h.1zm22.4 24.6-.8-2.7h-.2c-.93 1.13-1.87 1.93-2.8 2.4-.93.4-2.17.6-3.7.6-1.87 0-3.33-.5-4.4-1.5-1.07-1.07-1.63-2.53-1.7-4.4.07-2 .83-3.5 2.3-4.5 1.47-1.07 3.73-1.63 6.8-1.7l3.3-.1v-1.1c0-1.2-.27-2.1-.8-2.7-.6-.6-1.5-.9-2.7-.9-1 0-1.96.13-2.9.4-.93.27-1.8.6-2.6 1l-1.4-2.9a12.12 12.12 0 0 1 3.5-1.3c1.27-.27 2.44-.4 3.5-.4 2.53 0 4.4.53 5.6 1.6 1.27 1.07 1.9 2.77 1.9 5.1v13.1h-2.9zm-6.1-2.8c1.47 0 2.67-.43 3.6-1.3.93-.87 1.37-2.04 1.3-3.5v-1.7l-2.4.1c-1.93.06-3.37.4-4.3 1-.87.53-1.3 1.4-1.3 2.6 0 .87.27 1.53.8 2 .47.53 1.23.8 2.3.8zm0 0"/><path d="m703.4 566.3 2.3-2.9 5.9-6.3h4.8l-7.9 8.4 8.3 11.1H712l-6.2-8.6-2.3 1.9v6.7h-4.1v-27.4h4.1v13.4l-.2 3.7h.1zm0 0"/><path fill-rule="evenodd" d="M737.2 566.8c0 3.2-.83 5.7-2.5 7.5-1.6 1.73-3.87 2.6-6.8 2.6-1.8 0-3.4-.4-4.8-1.2-1.33-.8-2.4-1.97-3.2-3.5-.73-1.53-1.1-3.33-1.1-5.4 0-3.13.8-5.6 2.4-7.4 1.6-1.73 3.9-2.6 6.9-2.6 2.8 0 5 .9 6.6 2.7 1.67 1.8 2.5 4.23 2.5 7.3zm-14.1 0c0 4.47 1.63 6.7 4.9 6.7s4.9-2.23 4.9-6.7c0-4.4-1.63-6.6-4.9-6.6-1.73 0-3 .57-3.8 1.7-.73 1.13-1.1 2.77-1.1 4.9zM755 571c0 1.93-.7 3.4-2.1 4.4-1.4 1-3.36 1.5-5.9 1.5-2.6 0-4.7-.4-6.3-1.2v-3.5c2.34 1.07 4.47 1.6 6.4 1.6 2.53 0 3.8-.76 3.8-2.3 0-.53-.13-.97-.4-1.3-.27-.33-.73-.66-1.4-1a42.55 42.55 0 0 0-2.7-1.2c-2.2-.87-3.7-1.73-4.5-2.6-.8-.87-1.2-2-1.2-3.4 0-1.67.67-2.93 2-3.8 1.33-.93 3.17-1.4 5.5-1.4 2.27 0 4.43.47 6.5 1.4l-1.4 3.1c-2.07-.87-3.8-1.3-5.2-1.3-2.2 0-3.3.6-3.3 1.8 0 .67.27 1.2.8 1.6.6.4 1.87.97 3.8 1.7 1.6.67 2.73 1.23 3.4 1.7.73.53 1.3 1.13 1.7 1.8.33.67.5 1.47.5 2.4zm-9.7-16.2v-.5c.67-.8 1.37-1.7 2.1-2.7.73-1 1.3-1.87 1.7-2.6h4.8v.4c-.6.73-1.53 1.63-2.8 2.7a67.8 67.8 0 0 1-3 2.7h-2.8zm22 22.1c-2.93 0-5.17-.83-6.7-2.5-1.53-1.73-2.3-4.2-2.3-7.4 0-3.27.8-5.8 2.4-7.6 1.6-1.73 3.9-2.6 6.9-2.6 2.07 0 3.9.37 5.5 1.1l-1.2 3.4c-1.73-.73-3.17-1.1-4.3-1.1-3.4 0-5.1 2.23-5.1 6.7 0 2.2.43 3.83 1.3 4.9.8 1.13 2.03 1.7 3.7 1.7 1.8 0 3.53-.46 5.2-1.4v3.6a6.17 6.17 0 0 1-2.4.9c-.8.2-1.8.3-3 .3zm-2.5-22.1v-.5c.67-.8 1.37-1.7 2.1-2.7.73-1 1.3-1.87 1.7-2.6h4.8v.4c-.6.73-1.53 1.67-2.8 2.8-1.2 1.07-2.2 1.93-3 2.6h-2.8zm-291.2 52.7c0 3.13-.8 5.6-2.4 7.4-1.67 1.8-3.93 2.7-6.8 2.7-1.8 0-3.4-.43-4.8-1.3-1.4-.8-2.5-1.97-3.3-3.5-.73-1.53-1.1-3.3-1.1-5.3 0-3.2.8-5.67 2.4-7.4 1.67-1.8 3.97-2.7 6.9-2.7 2.8 0 5.04.9 6.7 2.7 1.6 1.86 2.4 4.33 2.4 7.4zm-14.1 0c0 4.47 1.63 6.7 4.9 6.7 3.27 0 4.9-2.23 4.9-6.7.07-4.47-1.57-6.7-4.9-6.7-1.73 0-3 .57-3.8 1.7-.73 1.2-1.1 2.87-1.1 5zm0 0"/><path d="M491.4 611.7c0 1.87-.7 3.34-2.1 4.4-1.4 1-3.37 1.5-5.9 1.5-2.6 0-4.67-.4-6.2-1.2v-3.6c2.27 1.07 4.37 1.6 6.3 1.6 2.54 0 3.8-.77 3.8-2.3 0-.47-.13-.87-.4-1.2-.27-.33-.73-.67-1.4-1-.6-.4-1.5-.8-2.7-1.2-2.2-.87-3.7-1.73-4.5-2.6-.8-.87-1.2-2-1.2-3.4 0-1.66.67-2.97 2-3.9 1.33-.93 3.17-1.4 5.5-1.4 2.27 0 4.44.47 6.5 1.4l-1.4 3.1c-2.07-.86-3.8-1.3-5.2-1.3-2.2 0-3.3.63-3.3 1.9 0 .6.27 1.1.8 1.5.6.47 1.87 1.07 3.8 1.8 1.6.6 2.74 1.17 3.4 1.7.73.54 1.3 1.13 1.7 1.8.33.67.5 1.47.5 2.4zm0 0"/><path fill-rule="evenodd" d="M500 617.2h-4.1v-19.4h4.1v19.4zm-4.4-24.6c0-.73.2-1.3.6-1.7.4-.4 1-.6 1.8-.6.67 0 1.2.2 1.6.6.4.4.63.97.7 1.7-.07.73-.3 1.3-.7 1.7-.4.4-.93.6-1.6.6-.8 0-1.4-.2-1.8-.6-.4-.4-.6-.97-.6-1.7zm22.5 24.6-.9-2.7h-.1c-.93 1.2-1.9 2-2.9 2.4-.93.47-2.13.7-3.6.7-1.93 0-3.43-.53-4.5-1.6-1.07-1-1.6-2.47-1.6-4.4 0-2 .73-3.5 2.2-4.5 1.53-1 3.83-1.57 6.9-1.7l3.3-.1v-1c0-1.2-.3-2.13-.9-2.8-.53-.6-1.43-.9-2.7-.9-1 0-1.93.13-2.8.4-.93.33-1.83.7-2.7 1.1l-1.3-3a14.5 14.5 0 0 1 3.5-1.2c1.2-.33 2.37-.5 3.5-.5 2.47 0 4.33.57 5.6 1.7 1.27 1.07 1.9 2.73 1.9 5v13.1h-2.9zm-6.2-2.8c1.53 0 2.73-.4 3.6-1.2.93-.87 1.4-2.07 1.4-3.6v-1.7l-2.5.1c-1.93.07-3.33.4-4.2 1-.87.6-1.3 1.5-1.3 2.7 0 .87.23 1.53.7 2 .53.47 1.3.7 2.3.7zm7.2 4.9c.47-.6 1.1-1.3 1.9-2.1h-2.6c-1.13.87-1.93 1.63-2.4 2.3a4.76 4.76 0 0 0-.6 2.3c0 1.13.33 2.03 1 2.7.67.67 1.67 1 3 1 .8 0 1.6-.13 2.4-.4v-2.5c-.67.2-1.26.3-1.8.3-1 0-1.5-.53-1.5-1.6 0-.67.2-1.33.6-2zm24.1-21.5v2.3l-3.4.6c.33.4.6.9.8 1.5.2.6.3 1.23.3 1.9 0 2-.7 3.57-2.1 4.7-1.4 1.13-3.3 1.7-5.7 1.7-.6 0-1.17-.04-1.7-.1-.86.53-1.3 1.17-1.3 1.9 0 .47.2.8.6 1 .4.27 1.17.4 2.3.4h3.4c2.14 0 3.77.43 4.9 1.3 1.07.93 1.6 2.27 1.6 4 0 2.2-.9 3.9-2.7 5.1-1.8 1.2-4.4 1.8-7.8 1.8-2.67 0-4.7-.47-6.1-1.4-1.4-.93-2.1-2.27-2.1-4 0-1.2.37-2.23 1.1-3.1.8-.8 1.87-1.37 3.2-1.7-.53-.2-1-.57-1.4-1.1-.33-.53-.5-1.06-.5-1.6 0-.73.2-1.37.6-1.9.4-.47 1.03-.97 1.9-1.5a4.83 4.83 0 0 1-2.5-2.1c-.6-1-.9-2.13-.9-3.4 0-2.13.67-3.77 2-4.9 1.34-1.2 3.2-1.8 5.6-1.8.6 0 1.2.07 1.8.2.6.07 1.03.13 1.3.2h6.8zM528 620.3c0 .87.4 1.53 1.2 2 .8.47 1.93.7 3.4.7 2.2 0 3.87-.33 5-1 1.07-.6 1.6-1.43 1.6-2.5 0-.87-.3-1.47-.9-1.8-.6-.4-1.7-.6-3.3-.6h-3.2c-1.13 0-2.07.3-2.8.9-.67.54-1 1.3-1 2.3zm1.7-16.2c0 1.2.34 2.13 1 2.8.6.67 1.5 1 2.7 1 2.4 0 3.6-1.3 3.6-3.9 0-1.2-.3-2.17-.9-2.9-.6-.67-1.5-1-2.7-1-1.2 0-2.1.33-2.7 1-.67.67-1 1.67-1 3zm29.2 13.1-.8-2.7h-.1c-1 1.2-1.97 2-2.9 2.4-.93.47-2.13.7-3.6.7-1.93 0-3.43-.53-4.5-1.6-1.07-1-1.6-2.47-1.6-4.4 0-2 .73-3.5 2.2-4.5 1.47-1 3.73-1.57 6.8-1.7l3.4-.1v-1c0-1.2-.3-2.13-.9-2.8-.6-.6-1.5-.9-2.7-.9-1 0-1.97.13-2.9.4-.87.33-1.73.7-2.6 1.1l-1.3-3c1.07-.53 2.2-.93 3.4-1.2 1.27-.33 2.47-.5 3.6-.5 2.47 0 4.33.57 5.6 1.7 1.27 1.07 1.9 2.73 1.9 5v13.1h-3zm-6.2-2.8c1.53 0 2.73-.4 3.6-1.2.93-.87 1.4-2.07 1.4-3.6v-1.7l-2.5.1c-1.93.07-3.37.4-4.3 1-.86.6-1.3 1.5-1.3 2.7 0 .87.27 1.53.8 2s1.3.7 2.3.7zm0 0"/><path d="M584.7 617.2h-4.1v-11.9c0-1.53-.3-2.67-.9-3.4-.6-.73-1.57-1.1-2.9-1.1-1.73 0-3 .5-3.8 1.5-.87 1.07-1.3 2.8-1.3 5.2v9.7h-4.1v-19.4h3.2l.6 2.5h.2c.6-.93 1.44-1.63 2.5-2.1a8.37 8.37 0 0 1 3.6-.8c4.67 0 7 2.37 7 7.1v12.7zm0 0"/><path fill-rule="evenodd" d="M598.9 617.6c-3 0-5.36-.9-7.1-2.7-1.67-1.73-2.5-4.17-2.5-7.3s.8-5.6 2.4-7.4c1.53-1.87 3.7-2.8 6.5-2.8 2.53 0 4.57.8 6.1 2.4 1.47 1.53 2.2 3.67 2.2 6.4v2.2h-13c.07 1.93.6 3.4 1.6 4.4.93 1 2.27 1.5 4 1.5 1.13 0 2.2-.1 3.2-.3 1-.2 2.07-.57 3.2-1.1v3.3c-1 .53-2 .9-3 1.1-1.07.2-2.27.3-3.6.3zm-.7-17c-1.33 0-2.4.4-3.2 1.2-.8.87-1.27 2.07-1.4 3.6h8.8c0-1.6-.36-2.8-1.1-3.6-.8-.8-1.83-1.2-3.1-1.2zm29.4-2.8v2.3l-3.3.6c.27.4.5.9.7 1.5.2.6.3 1.23.3 1.9 0 2-.7 3.57-2.1 4.7-1.33 1.13-3.23 1.7-5.7 1.7-.6 0-1.17-.04-1.7-.1-.87.53-1.3 1.17-1.3 1.9 0 .47.2.8.6 1 .47.27 1.23.4 2.3.4h3.4c2.13 0 3.77.43 4.9 1.3 1.13.93 1.7 2.27 1.7 4 0 2.2-.93 3.9-2.8 5.1-1.8 1.2-4.4 1.8-7.8 1.8-2.67 0-4.7-.47-6.1-1.4-1.4-.93-2.1-2.27-2.1-4 0-1.2.37-2.23 1.1-3.1.8-.8 1.87-1.37 3.2-1.7-.53-.2-.97-.57-1.3-1.1-.4-.53-.6-1.06-.6-1.6 0-.73.2-1.37.6-1.9.47-.47 1.1-.97 1.9-1.5-1-.4-1.83-1.1-2.5-2.1-.6-1-.9-2.13-.9-3.4 0-2.13.67-3.77 2-4.9 1.33-1.2 3.23-1.8 5.7-1.8.53 0 1.1.07 1.7.2.6.07 1.03.13 1.3.2h6.8zm-15.2 22.5c0 .87.4 1.53 1.2 2 .8.47 1.93.7 3.4.7 2.2 0 3.87-.33 5-1 1.07-.6 1.6-1.43 1.6-2.5 0-.87-.3-1.47-.9-1.8-.6-.4-1.7-.6-3.3-.6h-3.1c-1.2 0-2.17.3-2.9.9-.67.54-1 1.3-1 2.3zm1.8-16.2c0 1.2.3 2.13.9 2.8.6.67 1.5 1 2.7 1 2.4 0 3.6-1.3 3.6-3.9 0-1.2-.3-2.17-.9-2.9-.6-.67-1.5-1-2.7-1-1.2 0-2.1.33-2.7 1-.6.67-.9 1.67-.9 3zm34.2 3.4c0 3.13-.8 5.6-2.4 7.4-1.67 1.8-3.93 2.7-6.8 2.7-1.8 0-3.4-.43-4.8-1.3-1.4-.8-2.5-1.97-3.3-3.5-.73-1.53-1.1-3.3-1.1-5.3 0-3.2.8-5.67 2.4-7.4 1.67-1.8 3.97-2.7 6.9-2.7 2.8 0 5.03.9 6.7 2.7 1.6 1.86 2.4 4.33 2.4 7.4zm-14.1 0c0 4.47 1.63 6.7 4.9 6.7 3.27 0 4.9-2.23 4.9-6.7s-1.63-6.7-4.9-6.7c-1.73 0-3 .57-3.8 1.7-.73 1.2-1.1 2.87-1.1 5zm0 0"/><path d="M670.3 617.6c-2.93 0-5.17-.87-6.7-2.6-1.53-1.73-2.3-4.2-2.3-7.4 0-3.27.8-5.77 2.4-7.5 1.6-1.8 3.93-2.7 7-2.7 2 0 3.83.4 5.5 1.2l-1.3 3.3c-1.73-.67-3.17-1-4.3-1-3.33 0-5 2.23-5 6.7 0 2.13.4 3.77 1.2 4.9.87 1.07 2.1 1.6 3.7 1.6 1.87 0 3.6-.47 5.2-1.4v3.7c-.73.4-1.5.7-2.3.9-.87.2-1.9.3-3.1.3zm0 0"/><path fill-rule="evenodd" d="M688.8 617.6c-3 0-5.37-.9-7.1-2.7-1.73-1.73-2.6-4.17-2.6-7.3s.8-5.6 2.4-7.4c1.6-1.87 3.77-2.8 6.5-2.8 2.6 0 4.63.8 6.1 2.4 1.47 1.53 2.2 3.67 2.2 6.4v2.2h-12.9c.07 1.93.57 3.4 1.5 4.4 1 1 2.37 1.5 4.1 1.5 1.13 0 2.2-.1 3.2-.3 1-.2 2.07-.57 3.2-1.1v3.3c-1 .53-2.03.9-3.1 1.1-1 .2-2.17.3-3.5.3zm-.8-17c-1.27 0-2.3.4-3.1 1.2-.8.87-1.27 2.07-1.4 3.6h8.8c-.07-1.6-.47-2.8-1.2-3.6-.73-.8-1.77-1.2-3.1-1.2zm0 0"/><path d="M705.1 617.2H701v-27.3h4.1v27.3zm19.7 0-.6-2.5h-.2c-.6.87-1.43 1.57-2.5 2.1s-2.27.8-3.6.8c-2.33 0-4.1-.6-5.3-1.8-1.13-1.2-1.7-2.97-1.7-5.3v-12.7h4.1v12c0 1.47.3 2.57.9 3.3.67.73 1.64 1.1 2.9 1.1 1.74 0 3-.5 3.8-1.5.87-1.07 1.3-2.8 1.3-5.2v-9.7h4.1v19.4h-3.2zM94.1 402.4H75.7v-2.9l12.9-19.2H76.1v-3.6h17.6v2.9l-13 19.2h13.4v3.6zm0 0"/><path fill-rule="evenodd" d="m110.4 402.4-.9-2.7h-.1c-.93 1.13-1.9 1.93-2.9 2.4-.93.4-2.13.6-3.6.6-1.93 0-3.43-.5-4.5-1.5-1.07-1.07-1.6-2.53-1.6-4.4 0-2 .77-3.5 2.3-4.5 1.47-1.07 3.73-1.63 6.8-1.7l3.3-.1v-1c0-1.27-.3-2.2-.9-2.8-.53-.6-1.43-.9-2.7-.9-1 0-1.93.13-2.8.4-.93.26-1.83.6-2.7 1l-1.3-2.9a17.93 17.93 0 0 1 3.5-1.3c1.2-.27 2.37-.4 3.5-.4 2.47 0 4.33.53 5.6 1.6 1.27 1.07 1.9 2.76 1.9 5.1v13.1h-2.9zm-6.1-2.8c1.47 0 2.67-.43 3.6-1.3.87-.8 1.3-1.97 1.3-3.5v-1.7l-2.5.1c-1.93.07-3.33.4-4.2 1-.87.6-1.3 1.5-1.3 2.7 0 .87.23 1.53.7 2 .53.47 1.33.7 2.4.7zm0 0"/><path d="M135.4 402.4h-4.1v-12c0-1.47-.3-2.57-.9-3.3-.53-.73-1.4-1.1-2.6-1.1-1.6 0-2.77.5-3.5 1.5-.73 1.07-1.1 2.8-1.1 5.2v9.7h-4.1V383h3.2l.6 2.5h.2c.53-.93 1.3-1.63 2.3-2.1a7.52 7.52 0 0 1 3.4-.8c3 0 4.97 1.03 5.9 3.1h.3a6.15 6.15 0 0 1 2.4-2.3c1.07-.53 2.27-.8 3.6-.8 2.33 0 4.03.6 5.1 1.8 1.07 1.13 1.6 2.9 1.6 5.3v12.7h-4.2v-12c0-1.47-.27-2.57-.8-3.3s-1.4-1.1-2.6-1.1c-1.67 0-2.87.5-3.6 1.5s-1.1 2.53-1.1 4.6v10.3zm0 0"/><path fill-rule="evenodd" d="M157.6 402.4h-4.2V383h4.2v19.4zm-4.4-24.6c0-.73.2-1.3.6-1.7.4-.4.97-.6 1.7-.6s1.3.2 1.7.6c.4.4.6.97.6 1.7 0 .74-.2 1.3-.6 1.7-.4.4-.97.6-1.7.6s-1.3-.2-1.7-.6c-.4-.4-.6-.96-.6-1.7zm18.7 24.9c-3 0-5.33-.87-7-2.6-1.73-1.73-2.6-4.17-2.6-7.3s.8-5.63 2.4-7.5c1.6-1.8 3.77-2.7 6.5-2.7 2.53 0 4.57.77 6.1 2.3 1.47 1.6 2.2 3.77 2.2 6.5v2.2h-12.9c.07 1.87.57 3.3 1.5 4.3.93 1.07 2.3 1.6 4.1 1.6 1.13 0 2.17-.13 3.1-.4 1-.2 2.07-.53 3.2-1v3.3c-1 .47-2 .8-3 1-1.07.2-2.27.3-3.6.3zm-.7-17c-1.33 0-2.4.43-3.2 1.3-.73.8-1.2 2-1.4 3.6h8.8c0-1.6-.37-2.8-1.1-3.6-.73-.87-1.77-1.3-3.1-1.3zm0 0"/><path d="M194 382.6c.87 0 1.57.07 2.1.2l-.4 3.8a8.05 8.05 0 0 0-1.8-.2c-1.67 0-3.03.53-4.1 1.6-1 1.07-1.5 2.46-1.5 4.2v10.2h-4.1V383h3.2l.6 3.4h.2c.6-1.2 1.43-2.13 2.5-2.8 1-.67 2.1-1 3.3-1zm18.7 19.8H198v-2.6l9.8-13.7h-9.3V383h13.9v2.8l-9.6 13.4h9.9v3.2zm0 0"/><path fill-rule="evenodd" d="M225.4 402.7c-3.07 0-5.43-.87-7.1-2.6-1.73-1.73-2.6-4.17-2.6-7.3s.8-5.63 2.4-7.5c1.6-1.8 3.77-2.7 6.5-2.7 2.6 0 4.63.77 6.1 2.3 1.47 1.6 2.2 3.77 2.2 6.5v2.2H220c.07 1.87.57 3.3 1.5 4.3 1 1.07 2.37 1.6 4.1 1.6 1.13 0 2.2-.13 3.2-.4 1-.2 2.07-.53 3.2-1v3.3c-1 .47-2.03.8-3.1 1-1 .2-2.17.3-3.5.3zm-.8-17c-1.27 0-2.3.43-3.1 1.3-.8.8-1.27 2-1.4 3.6h8.8c-.07-1.6-.47-2.8-1.2-3.6-.73-.87-1.77-1.3-3.1-1.3zm0 0"/><path d="M254.7 402.4h-4.1v-12c0-1.47-.3-2.57-.9-3.3-.67-.73-1.63-1.1-2.9-1.1-1.73 0-3 .5-3.8 1.5-.87 1.07-1.3 2.8-1.3 5.2v9.7h-4.1V383h3.3l.5 2.5h.3c.53-.93 1.33-1.63 2.4-2.1a8.37 8.37 0 0 1 3.6-.8c4.67 0 7 2.37 7 7.1v12.7zm0 0"/><path fill-rule="evenodd" d="M264.6 402.4h-4.1V383h4.1v19.4zm-4.4-24.6c0-.73.2-1.3.6-1.7.4-.4.97-.6 1.7-.6s1.3.2 1.7.6c.4.4.6.97.6 1.7 0 .74-.2 1.3-.6 1.7-.4.4-.97.6-1.7.6s-1.3-.2-1.7-.6c-.4-.4-.6-.96-.6-1.7zm18.8 24.9c-3.07 0-5.43-.87-7.1-2.6-1.73-1.73-2.6-4.17-2.6-7.3s.8-5.63 2.4-7.5c1.6-1.8 3.77-2.7 6.5-2.7 2.53 0 4.57.77 6.1 2.3 1.47 1.6 2.2 3.77 2.2 6.5v2.2h-12.9c.07 1.87.57 3.3 1.5 4.3.93 1.07 2.3 1.6 4.1 1.6a12.45 12.45 0 0 0 3.2-.4c.93-.2 2-.53 3.2-1v3.3c-1.07.47-2.1.8-3.1 1-1 .2-2.17.3-3.5.3zm-.8-17c-1.33 0-2.37.43-3.1 1.3-.8.8-1.27 2-1.4 3.6h8.8c-.07-1.6-.47-2.8-1.2-3.6-.73-.87-1.77-1.3-3.1-1.3zm0 0"/><path d="M94.1 849.5H75.7v-2.9l12.9-19.1H76.1v-3.6h17.6v2.9l-13 19.1h13.4v3.6zm0 0"/><path fill-rule="evenodd" d="m110.4 849.5-.9-2.7h-.1c-.93 1.2-1.9 2.03-2.9 2.5-.93.4-2.13.6-3.6.6-1.93 0-3.43-.5-4.5-1.5-1.07-1.07-1.6-2.53-1.6-4.4 0-2 .77-3.54 2.3-4.6 1.47-1 3.73-1.53 6.8-1.6l3.3-.2v-1c0-1.2-.3-2.14-.9-2.8-.53-.6-1.43-.9-2.7-.9-1 0-1.93.17-2.8.5-.93.27-1.83.6-2.7 1l-1.3-3a14.5 14.5 0 0 1 3.5-1.2c1.2-.27 2.37-.4 3.5-.4 2.47-.07 4.33.47 5.6 1.6 1.27 1.06 1.9 2.77 1.9 5.1v13h-2.9zm-6.1-2.8c1.47 0 2.67-.4 3.6-1.2.87-.87 1.3-2.07 1.3-3.6v-1.6l-2.5.1c-1.93.07-3.33.37-4.2.9-.87.6-1.3 1.5-1.3 2.7 0 .87.23 1.53.7 2 .53.47 1.33.7 2.4.7zm0 0"/><path d="M135.4 849.5h-4.1v-11.9c0-1.53-.3-2.67-.9-3.4-.53-.74-1.4-1.1-2.6-1.1-1.6 0-2.77.53-3.5 1.6-.73 1-1.1 2.73-1.1 5.2v9.6h-4.1v-19.4h3.2l.6 2.6h.2c.53-.93 1.3-1.67 2.3-2.2a9.79 9.79 0 0 1 3.4-.8c3 0 4.97 1.03 5.9 3.1h.3a6.36 6.36 0 0 1 2.4-2.2c1.07-.6 2.27-.9 3.6-.9 2.33 0 4.03.6 5.1 1.8 1.07 1.2 1.6 3 1.6 5.4v12.6h-4.2v-11.9c0-1.53-.27-2.67-.8-3.4-.53-.74-1.4-1.1-2.6-1.1-1.67 0-2.87.5-3.6 1.5s-1.1 2.53-1.1 4.6v10.3zm0 0"/><path fill-rule="evenodd" d="M157.6 849.5h-4.2v-19.4h4.2v19.4zm-4.4-24.6c0-.73.2-1.3.6-1.7.4-.4.97-.6 1.7-.6s1.3.2 1.7.6c.4.4.6.97.6 1.7s-.2 1.3-.6 1.7c-.4.4-.97.6-1.7.6s-1.3-.2-1.7-.6c-.4-.4-.6-.97-.6-1.7zm18.7 25c-3 0-5.33-.87-7-2.6-1.73-1.8-2.6-4.23-2.6-7.3 0-3.2.8-5.7 2.4-7.5 1.6-1.8 3.77-2.7 6.5-2.7 2.53 0 4.57.77 6.1 2.3 1.47 1.53 2.2 3.67 2.2 6.4v2.2h-12.9c.07 1.93.57 3.4 1.5 4.4.93 1 2.3 1.5 4.1 1.5 1.13 0 2.17-.1 3.1-.3 1-.2 2.07-.57 3.2-1.1v3.4c-1 .47-2 .8-3 1-1.07.2-2.27.3-3.6.3zm-.7-17c-1.33 0-2.4.4-3.2 1.2-.73.87-1.2 2.1-1.4 3.7h8.8c0-1.6-.37-2.84-1.1-3.7-.73-.8-1.77-1.2-3.1-1.2zm0 0"/><path d="M194 829.8c.87 0 1.57.03 2.1.1l-.4 3.9c-.6-.13-1.2-.2-1.8-.2-1.67 0-3.03.53-4.1 1.6-1 1.07-1.5 2.47-1.5 4.2v10.1h-4.1v-19.4h3.2l.6 3.4h.2a6.96 6.96 0 0 1 2.5-2.7c1-.73 2.1-1.07 3.3-1zm18.7 19.7H198V847l9.8-13.7h-9.3v-3.2h13.9v2.9l-9.6 13.4h9.9v3.1zm0 0"/><path fill-rule="evenodd" d="M225.4 849.9c-3.07 0-5.43-.87-7.1-2.6-1.73-1.8-2.6-4.23-2.6-7.3 0-3.2.8-5.7 2.4-7.5 1.6-1.8 3.77-2.7 6.5-2.7 2.6 0 4.63.77 6.1 2.3 1.47 1.53 2.2 3.67 2.2 6.4v2.2H220c.07 1.93.57 3.4 1.5 4.4 1 1 2.37 1.5 4.1 1.5 1.13 0 2.2-.1 3.2-.3 1-.2 2.07-.57 3.2-1.1v3.4c-1 .47-2.03.8-3.1 1-1 .2-2.17.3-3.5.3zm-.8-17c-1.27 0-2.3.4-3.1 1.2-.8.87-1.27 2.1-1.4 3.7h8.8c-.07-1.6-.47-2.84-1.2-3.7-.73-.8-1.77-1.2-3.1-1.2zm0 0"/><path d="M254.7 849.5h-4.1v-11.9c0-1.53-.3-2.67-.9-3.4-.67-.74-1.63-1.1-2.9-1.1-1.73 0-3 .53-3.8 1.6-.87 1-1.3 2.73-1.3 5.2v9.6h-4.1v-19.4h3.3l.5 2.6h.3c.53-.93 1.33-1.67 2.4-2.2a10.92 10.92 0 0 1 3.6-.8c4.67 0 7 2.4 7 7.2v12.6zm0 0"/><path fill-rule="evenodd" d="M264.6 849.5h-4.1v-19.4h4.1v19.4zm-4.4-24.6c0-.73.2-1.3.6-1.7.4-.4.97-.6 1.7-.6s1.3.2 1.7.6c.4.4.6.97.6 1.7s-.2 1.3-.6 1.7c-.4.4-.97.6-1.7.6s-1.3-.2-1.7-.6c-.4-.4-.6-.97-.6-1.7zm18.8 25c-3.07 0-5.43-.87-7.1-2.6-1.73-1.8-2.6-4.23-2.6-7.3 0-3.2.8-5.7 2.4-7.5 1.6-1.8 3.77-2.7 6.5-2.7 2.53 0 4.57.77 6.1 2.3 1.47 1.53 2.2 3.67 2.2 6.4v2.2h-12.9c.07 1.93.57 3.4 1.5 4.4.93 1 2.3 1.5 4.1 1.5 1.13 0 2.2-.1 3.2-.3.93-.2 2-.57 3.2-1.1v3.4a15.5 15.5 0 0 1-3.1 1c-1 .2-2.17.3-3.5.3zm-.8-17c-1.33 0-2.37.4-3.1 1.2-.8.87-1.27 2.1-1.4 3.7h8.8c-.07-1.6-.47-2.84-1.2-3.7-.73-.8-1.77-1.2-3.1-1.2zm0 0"/><path d="M1 1195.7h1198.3v4.3H1v-4.3zm0 0"/><path fill-rule="evenodd" d="M174.6 660.5c42.4 0 75.4 36.9 70.6 79-6.2 54.4-68.8 81.7-112.8 49.1-44-32.5-36.3-100.4 13.9-122.2 8.9-3.9 18.6-5.9 28.3-5.9zm3.9-434c42.4 0 75.3 36.9 70.5 79-6.1 54.4-68.8 81.6-112.8 49.1-43.9-32.5-36.2-100.4 13.9-122.2 8.9-3.9 18.6-5.9 28.4-5.9zm0 0"/><path d="M705 .4h495v3.3H705V.4zm0 0"/><path d="M232.5.4h527v2.8h-527V.4zm0 0"/><path d="M.1.4h348v3.3H.1V.4zm0 0"/><path d="M.1.5h4.4v386.1H.1V.5zm0 0"/><path d="M.1 254h4.4v481.4H.1V254zm0 0"/><path d="M.1 618.9H4v437.3H.1V618.9zm0 0"/><path d="M.1 1008.9h12.1V1200H.1v-191.1zm0 0"/><path d="M.1 1195.1H575v4.9H.1v-4.9zm0 0"/><path d="M222 1195.1h915.2v4.9H222v-4.9zm0 0"/><path d="M693.4 1196.7h506v3.3h-506v-3.3zm0 0"/><path d="M1189 1186.3h10.4v13.7H1189v-13.7zm0 0"/><path d="M1195.6 747.6h4.4V1200h-4.4V747.6zm0 0"/><path d="M1196.7 532.2h3.3v411.4h-3.3V532.2zm0 0"/><path d="M1195.6 203.9h4.4v474.2h-4.4V203.9zm0 0"/><path d="M1198.3.1h1.7v402.1h-1.7V.1zm0 0"/><path d="M1175.8 0h24.2v1.1h-24.2V0zm0 0"/><path d="M716 0h484v3.9H716V0zm0 0"/><path d="M158.1 0h935.1v4.4H158.1V0zm0 0"/><path d="M.1 0h546.3v6.1H.1V0zm0 0"/><path fill="#f5f5f5" d="M523.2 213.9c-.3-.8 0-1.6.6-1.8.7-.2 1.4.2 1.7 1 .2.8-.1 1.6-.7 1.8-.6.3-1.4-.2-1.6-1zm2.8 13.7 8.9-1.4 1.3 8.4-8.9 1.3-1.3-8.3zm0 0"/><path fill="#f5f5f5" d="m480.7 217.7 50.4-9 7.2 40-50.4 9.1-7.2-40.1zm0 0"/><path fill="#f5f5f5" d="M533.5 229.7c-.3-.8-.2-1.5.3-1.8.5-.2 1.2.2 1.6 1 .3.7.2 1.5-.3 1.8-.6.2-1.2-.2-1.6-1zm-4.6-1.6 3.9-.6.5 3.8-3.9.6-.5-3.8zm0 0"/><path d="m535.1 265.1.9 3.7"/><path stroke="#f5f5f5" stroke-miterlimit="2" d="M535.1 228.3h1.3l-.1.5h-1.2v-.5zm0 0"/><path fill="red" d="m459.9 216.4 78.8 13.9-71 38.5-7.8-52.4zm0 0"/><path fill-rule="evenodd" d="M1020.7 209.1c42.4 0 75.4 37 70.6 79.1-6.2 54.3-68.8 81.6-112.8 49.1-43.9-32.5-36.2-100.4 13.9-122.3 8.9-3.8 18.6-5.9 28.3-5.9zm6.6 453.3c42.4 0 75.4 36.9 70.6 79.1-6.2 54.3-68.9 81.6-112.8 49.1-44-32.6-36.3-100.5 13.8-122.3 9-3.9 18.7-5.9 28.4-5.9zm0 0"/><path fill="#f5f5f5" d="M441.1 210h64v62.8h-64V210zm0 0"/><path fill="#f5f5f5" d="M499.1 222.5h44V257h-44v-34.5zm0 0"/><path fill-rule="evenodd" d="M605.8 148.1c42.4 0 75.4 36.9 70.6 79-6.2 54.4-68.8 81.6-112.8 49.1-44-32.5-36.3-100.4 13.9-122.2 8.9-3.9 18.6-5.9 28.3-5.9zm0 0"/><path fill="red" d="m463.3 219.5 73.8 10-65.5 36.7-8.3-46.7zm0 0"/><path fill="red" stroke="red" stroke-miterlimit="2" d="m428.8 243.6 66.9-11.8 2.2 11.3-66.9 11.7-2.2-11.2zm0 0"/><path fill="red" stroke="red" stroke-miterlimit="2" d="m436.9 246.1 30-5.5 1.5 7.5-29.9 5.4-1.6-7.4zm0 0"/><path fill="red" d="m886.7 708.7 70.7 23.6-71.3 23.8.6-47.4zm0 0"/><path d="M.5 46h6.7v6H.5v-6zm0 0"/><path fill="red" d="m433.8 242.1 44-8.1.7 4-44 8.1-.7-4zm401.8 2.9 86.3 11.9-1.4 10.1-86.2-12 1.3-10zm0 0"/><path fill="red" d="m873 248.8 45.4 5.5-.7 5.4-45.4-5.5.7-5.4zm0 0"/><path fill="red" d="m885.7 232.1 67.1 32.3-73.7 14.7 6.6-47zm0 0"/><path stroke="#000" stroke-miterlimit="2" d="M1197.7.5h1.9v9.3h-1.9V.5zm-.7 1172h2.6v27h-2.6v-27zm0 0"/><path stroke="#000" stroke-miterlimit="2" d="M1196.7 1153.2h3v29h-3v-29zm0 0"/><path stroke="#000" stroke-miterlimit="2" d="M1197.1.5h2.5v1159.3h-2.5V.5zm0 0"/><path d="M.9 2h237.9v4.8H.8L.9 2zm0 0"/><path d="M140.4 2h306.9l.1 4.5H140.3l.1-4.5zm399.2 1.5h395v3.3h-395V3.5zm0 0"/><path d="M902.9 2.3h291.5v4.2H902.9V2.3zM1.9 3h5.5l-.1 77H1.8l.1-77zm0 0"/><path d="M1.9 50h5.5l-.1 164.3H1.8L1.9 50zm0 0"/><path d="M2.6 210h4.8v199H2.6V210zm0 0"/><path d="M2.1 403.5h5.3V601H2.1V403.5zm0 0"/><path d="M2.4 591.5h5v205.8h-5V591.5zm0 0"/><path d="M1.9 786.8h5.5l-.1 201.7H1.8l.1-201.7zm0 0"/><path d="M1.1 984h6.3v25.3H1.1V984zm0 0"/><path stroke="#000" stroke-miterlimit="2" d="M4.1 3.5h539v3H4.1v-3zm0 0"/><path stroke="#000" stroke-miterlimit="2" d="M294.1.5h763.5v6H294.1v-6zm0 0"/><path stroke="#000" stroke-miterlimit="2" d="M550.4 2.2H1198v3.5H550.4V2.2zm0 0"/><path fill="#f5f5f5" stroke="#f5f5f5" stroke-miterlimit="2" d="M7.2 7h1186v45.2H7.2V7zm0 0"/><path fill="#f5f5f5" d="M6.7 52.2h5.4v81.1H6.7V52.2zm0 0"/><path fill="#f5f5f5" d="M6.7 133.2h3.9V1000H6.7V133.2zm0 0"/><path stroke="#000" stroke-miterlimit="2" d="M1.4 48.3h5l-.1 9.2h-5l.1-9.2zm0 0"/><path fill="#f5f5f5" stroke="#f5f5f5" stroke-miterlimit="2" d="M1190.2 7.5h2.8v992h-2.8V7.5zm0 0"/><path stroke="#000" stroke-miterlimit="2" d="M1194 5.2h2.1v49.7h-2.1V5.2zM6.1 5.8H806v.4H6.1v-.4zm0 0"/><path stroke="#000" stroke-miterlimit="2" d="M789.2 2.2h405.9v4H789.2v-4zm393.9 998.4h16.5v2.9h-16.5v-2.9zm0 0"/><path stroke="#000" stroke-miterlimit="2" d="M1194.6 989.3h5v11.8h-5v-11.8zm0 0"/><path fill="#f5f5f5" stroke="#f5f5f5" stroke-miterlimit="2" d="M1181.1 994.4h12.5v5.1h-12.5v-5.1zM6.6 993.7h21.9v5.8H6.6v-5.8zm0 0"/><path stroke="#000" stroke-miterlimit="2" d="M4.7 1000.5h13.7v3.6H4.7v-3.6zm0 0"/><path stroke="#000" stroke-miterlimit="2" d="M.7 997.9h4.8v7.1H.7v-7.1zM1194.6 5.5h5v7.8h-5V5.5zm-15-4.9h20v4.9h-20V.6zm0 0"/><path fill="#f5f5f5" stroke="#f5f5f5" stroke-miterlimit="2" d="M1183.4 6.5h10.2v4.3h-10.2V6.5zM6.6 6.5h10.2v5.9H6.6V6.5zm0 0"/><path stroke="#000" stroke-miterlimit="2" d="M.6 4.3h5v6.5h-5V4.3zm0 0"/><path stroke="#000" stroke-miterlimit="2" d="M.6.5h28.1v5H.6v-5zm0 0"/><path d="M1194.1 973.8h6V1200h-6V973.8zm0 0"/><path fill="#f5f5f5" stroke="#f5f5f5" stroke-miterlimit="2" d="M6.6 6.5h50.6v993H6.6V6.5zm0 0"/><path fill="#f5f5f5" stroke="#f5f5f5" stroke-miterlimit="2" d="M6.9 6.5h1186.8v16H6.9v-16zm0 0"/><path fill="#f5f5f5" stroke="#f5f5f5" stroke-miterlimit="2" d="M1159.8 7h33.8v992.4h-33.8V7zM6.6 994.8h7.1v4.7H6.6v-4.7zm0 0"/><path stroke="#000" stroke-miterlimit="2" d="M4.2 1000.5h1191v7.4H4.2v-7.4zm0 0"/><path fill-rule="evenodd" d="M178.5 226.5c42.4 0 75.3 36.9 70.5 79-6.1 54.4-68.8 81.6-112.8 49.1-43.9-32.5-36.2-100.4 13.9-122.2 8.9-3.9 18.6-5.9 28.4-5.9zm0 0"/><path fill="#f5f5f5" fill-rule="evenodd" d="M1014.2 756v-43.7h15.1c4.53 0 8 .93 10.4 2.8 2.47 1.87 3.7 4.53 3.7 8 0 2.67-.63 4.8-1.9 6.4-1.27 1.53-3.1 2.5-5.5 2.9 2.93.67 5.2 1.97 6.8 3.9 1.6 2 2.4 4.5 2.4 7.5 0 3.87-1.33 6.87-4 9-2.66 2.13-6.43 3.2-11.3 3.2h-15.7zm14.7-38.9h-8.8v13.2h8.8c2.87 0 5-.54 6.4-1.6 1.4-1.07 2.1-2.74 2.1-5 0-2.2-.7-3.83-2.1-4.9-1.4-1.13-3.53-1.7-6.4-1.7zm.7 18h-9.5v16h9.5c3.2 0 5.57-.63 7.1-1.9 1.53-1.33 2.3-3.37 2.3-6.1 0-2.73-.77-4.73-2.3-6-1.53-1.33-3.9-2-7.1-2zM1008.1 302v-43.7h15.1c4.53 0 8 .93 10.4 2.8 2.47 1.87 3.7 4.53 3.7 8 0 2.67-.63 4.8-1.9 6.4-1.27 1.54-3.1 2.5-5.5 2.9 2.93.67 5.2 1.97 6.8 3.9 1.6 2 2.4 4.5 2.4 7.5 0 3.87-1.33 6.87-4 9s-6.43 3.2-11.3 3.2h-15.7zm14.6-38.9h-8.7v13.2h8.7c2.93 0 5.1-.54 6.5-1.6 1.4-1.07 2.1-2.74 2.1-5 0-2.2-.7-3.83-2.1-4.9-1.4-1.13-3.57-1.7-6.5-1.7zm.8 18h-9.5v16h9.5c3.2 0 5.54-.64 7-1.9 1.6-1.33 2.4-3.37 2.4-6.1 0-2.73-.8-4.73-2.4-6-1.46-1.33-3.8-2-7-2zm0 0"/><path fill="#f5f5f5" d="M602.6 217.7 589 197.3h6.3l10.9 16.2 10.9-16.2h6.4l-14.1 21 15 22.7h-6.3l-12.3-18.6-12.4 18.6H587l15.6-23.3zm0 0"/><path fill="#f5f5f5" fill-rule="evenodd" d="m154.4 753 16.7-43.7h6.7l16.6 43.7h-6.1l-4-11.2h-19.7l-4 11.2h-6.2zm28.1-16.1-8.1-21.8-8 21.8h16.1zm0 0"/><path stroke="#000" stroke-width="5" d="M1191.1 1192.9h6.7v4.6h-6.7v-4.6zm0 0"/><path stroke="#000" stroke-width="5" d="M2.6 1188.9h1195.2v8.9H2.6v-8.9zm0 0"/><path fill="#fff" fill-rule="evenodd" d="M48.9 1046.95v13.1h-5.4v-32.8h9.3c4.27 0 7.4.8 9.4 2.4 2.07 1.67 3.1 4.1 3.1 7.3 0 4.07-2.13 6.97-6.4 8.7l9.3 14.5H62l-7.8-13.1-5.3-.1zm0-4.4h3.7c2.53 0 4.37-.5 5.5-1.5 1.07-.93 1.6-2.34 1.6-4.2 0-1.8-.6-3.1-1.8-3.9-1.2-.8-3.03-1.24-5.5-1.3h-3.5v10.9zm45.5 5.2c0 4-1.03 7.17-3.1 9.5-2.13 2.27-5.03 3.4-8.7 3.4-2.33 0-4.4-.53-6.2-1.6-1.73-1.07-3.1-2.57-4.1-4.5-.93-2-1.4-4.27-1.4-6.8 0-4.07 1.03-7.23 3.1-9.5s4.97-3.4 8.7-3.4c3.6 0 6.43 1.17 8.5 3.5 2.13 2.33 3.2 5.47 3.2 9.4zm-18.1 0c0 5.67 2.13 8.5 6.4 8.5 4.13 0 6.23-2.83 6.3-8.5-.07-5.73-2.2-8.6-6.4-8.6-2.2 0-3.8.77-4.8 2.3-1 1.33-1.5 3.43-1.5 6.3zm3.4-15.5v-.5a94.09 94.09 0 0 0 2.7-3.5 162.99 162.99 0 0 0 2.1-3.3h6.1v.5c-.8.87-1.97 2.03-3.5 3.5-1.53 1.47-2.83 2.6-3.9 3.4l-3.5-.1zm37.3 27.9H98.2v-3.3l12.5-17.5H99v-4h17.7v3.7l-12.3 17.1H117v4zm-11.9-31.5c0-.94.27-1.67.8-2.2.53-.53 1.27-.8 2.2-.8.94 0 1.67.27 2.2.8.47.53.7 1.26.7 2.2 0 .87-.23 1.56-.7 2.1-.53.6-1.27.87-2.2.8-.93.07-1.67-.2-2.2-.8-.53-.54-.8-1.23-.8-2.1zm0 0"/><path fill="#fff" d="M144.2 1060.15h-5.3v-15.3c0-1.87-.37-3.27-1.1-4.2-.8-1-2.03-1.5-3.7-1.5-2.2 0-3.83.67-4.9 2-1 1.33-1.5 3.5-1.5 6.5v12.5h-5.3v-24.8h4.1l.8 3.3h.2c.8-1.2 1.87-2.13 3.2-2.8 1.4-.73 2.93-1.07 4.6-1 5.93 0 8.9 3.03 8.9 9.1v16.2zm0 0"/><path fill="#fff" fill-rule="evenodd" d="M157.5 1059.65h-5.3v-24.8h5.3v24.8zm-5.6-31.4c0-1 .23-1.77.7-2.3.53-.47 1.3-.7 2.3-.7.87 0 1.57.23 2.1.7.53.53.8 1.27.8 2.2 0 .87-.26 1.57-.8 2.1-.53.6-1.23.87-2.1.8-1 .07-1.77-.2-2.3-.8-.47-.53-.7-1.23-.7-2.1v.1zm0 0"/><path fill="#fff" d="M174.4 1060.65c-3.73 0-6.6-1.1-8.6-3.3-1.93-2.2-2.9-5.37-2.9-9.5 0-4.14 1.03-7.33 3.1-9.6 2-2.27 4.93-3.4 8.8-3.4 2.67-.07 5.03.43 7.1 1.5l-1.6 4.2c-2.2-.87-4.03-1.3-5.5-1.3-4.33 0-6.47 2.87-6.4 8.6 0 2.8.5 4.9 1.5 6.3 1.07 1.33 2.64 2 4.7 2 2.4 0 4.63-.6 6.7-1.8v4.6a11.67 11.67 0 0 1-3 1.2c-1.07.33-2.37.5-3.9.5zm0 0"/><path fill="#fff" fill-rule="evenodd" d="m202.7 1060.15-1.1-3.5h-.2c-1.2 1.53-2.4 2.53-3.6 3-1.2.67-2.73 1-4.6 1-2.47 0-4.4-.67-5.8-2-1.33-1.33-2-3.2-2-5.6 0-2.6.93-4.53 2.8-5.8 1.93-1.33 4.83-2.04 8.7-2.1l4.3-.2v-1.3c0-1.6-.37-2.77-1.1-3.5-.73-.8-1.87-1.2-3.4-1.2-1.27 0-2.5.17-3.7.5a36.72 36.72 0 0 0-3.4 1.4l-1.7-3.8c1.33-.73 2.83-1.27 4.5-1.6 1.6-.4 3.1-.6 4.5-.6 3.13 0 5.5.7 7.1 2.1 1.6 1.4 2.43 3.57 2.5 6.5v16.7h-3.8zm-7.9-3.6c1.93 0 3.47-.53 4.6-1.6 1.2-1.07 1.8-2.57 1.8-4.5v-2.1l-3.2.1c-2.53.07-4.37.47-5.5 1.2-1.13.8-1.7 1.93-1.7 3.4.07 1.13.4 2 1 2.6.67.6 1.67.9 3 .9zm0 0"/><path fill="#fff" d="M246.7 1060.15h-5.3v-15.3c0-1.87-.37-3.27-1.1-4.2-.73-1-1.87-1.5-3.4-1.5-2 0-3.5.67-4.5 2-.93 1.33-1.4 3.5-1.4 6.5v12.5h-5.2v-24.8h4.1l.7 3.3h.3c.67-1.2 1.67-2.13 3-2.8 1.27-.73 2.7-1.07 4.3-1 3.8-.07 6.34 1.23 7.6 3.9h.3c.8-1.2 1.87-2.13 3.2-2.8 1.33-.74 2.83-1.1 4.5-1.1 3 0 5.17.77 6.5 2.3 1.33 1.47 2 3.73 2 6.8v16.2h-5.2v-15.3c0-1.87-.37-3.27-1.1-4.2-.73-1-1.87-1.5-3.4-1.5-2.06 0-3.56.67-4.5 2-.93 1.27-1.4 3.23-1.4 5.9v13.1zm0 0"/><path fill="#fff" fill-rule="evenodd" d="M275 1060.15h-5.3v-24.8h5.3v24.8zm-5.6-31.4c0-1 .27-1.77.8-2.3.47-.47 1.2-.7 2.2-.7.93 0 1.63.23 2.1.7.54.53.8 1.27.8 2.2 0 .87-.26 1.57-.8 2.1-.46.6-1.17.87-2.1.8-1 .07-1.73-.2-2.2-.8-.53-.53-.8-1.23-.8-2.1v.1zm23.9 31.9c-3.87 0-6.87-1.17-9-3.5-2.2-2.27-3.3-5.37-3.3-9.3 0-4 1-7.17 3-9.5 2.07-2.33 4.87-3.5 8.4-3.5 3.27-.07 5.83.93 7.7 3 1.93 1.93 2.9 4.7 2.9 8.3v2.8h-16.5c.07 2.33.7 4.17 1.9 5.5s2.93 2 5.2 2c1.47 0 2.83-.17 4.1-.5 1.27-.2 2.63-.67 4.1-1.4v4.3c-1.13.53-2.23.9-3.3 1.1l.9-.9H296a35.23 35.23 0 0 0-1.6 1.5c-.33 0-.7.03-1.1.1zm5.2-.6a26.97 26.97 0 0 0-1.5 1.8c-.53.8-.8 1.63-.8 2.5 0 1.27.67 1.93 2 2 .6-.07 1.37-.2 2.3-.4v3.2c-1.07.33-2.1.5-3.1.5-1.73 0-3.03-.44-3.9-1.3-.87-.8-1.3-1.97-1.3-3.5 0-.87.3-1.77.9-2.7.27-.47.7-.97 1.3-1.5 1.27-.07 2.4-.23 3.4-.5.27 0 .5-.03.7-.1zm-6.1-21.2c-1.67 0-3 .5-4 1.5-1.07 1.13-1.7 2.73-1.9 4.8h11.3c0-2.07-.5-3.67-1.5-4.8-.93-1-2.23-1.5-3.9-1.5zm25 21.8c-3.13 0-5.57-1.17-7.3-3.5-1.73-2.27-2.6-5.44-2.6-9.5 0-4 .87-7.17 2.6-9.5 1.8-2.27 4.23-3.4 7.3-3.4 3.27 0 5.77 1.23 7.5 3.7h.3c-.27-1.8-.4-3.23-.4-4.3v-9h5.3v35h-4.2l-.9-3.3h-.2c-1.73 2.53-4.2 3.8-7.4 3.8zm1.4-4.3c2.13 0 3.7-.6 4.7-1.8 1-1.27 1.5-3.27 1.5-6v-.7c0-3.14-.5-5.37-1.5-6.7s-2.6-2-4.8-2c-1.87 0-3.3.73-4.3 2.2-1 1.53-1.5 3.7-1.5 6.5s.5 4.9 1.5 6.3c.93 1.4 2.4 2.13 4.4 2.2zm0 0"/><path fill="#fff" d="M354.2 1060.15h-18.8v-3.3l12.5-17.5h-11.8v-4h17.8v3.7l-12.3 17.1h12.6v4zm1.6-24.8h5.8l5 14c.8 2.07 1.3 3.97 1.5 5.7h.2c.13-.8.4-1.8.8-3 .33-1.13 2.2-6.7 5.6-16.7h5.7l-10.6 28.1c-1.93 5.13-5.13 7.7-9.6 7.7-1.2.07-2.33-.03-3.4-.3v-4.2c.8.2 1.7.3 2.7.3 2.54 0 4.33-1.47 5.4-4.4l.9-2.4-10-24.8zm0 0"/><path fill="#fff" fill-rule="evenodd" d="M408.8 1060.65c-3.2 0-5.67-1.17-7.4-3.5h-.3c.2 2.06.3 3.33.3 3.8v10.1h-5.2v-35.8h4.2c.14.46.4 1.57.8 3.3h.2c1.67-2.53 4.17-3.8 7.5-3.8 3.07 0 5.47 1.13 7.2 3.4 1.73 2.33 2.6 5.5 2.6 9.5s-.9 7.17-2.7 9.5c-1.73 2.33-4.13 3.5-7.2 3.5zm-1.3-21.5c-2.13 0-3.67.63-4.6 1.9-1 1.2-1.5 3.16-1.5 5.9v.7c0 3.06.5 5.27 1.5 6.6.93 1.33 2.5 2.04 4.7 2.1 1.8-.06 3.2-.83 4.2-2.3 1-1.47 1.5-3.6 1.5-6.4 0-2.86-.5-4.97-1.5-6.3-1-1.47-2.43-2.2-4.3-2.2zm0 0"/><path fill="#fff" d="M437.4 1034.75c1.07 0 1.93.1 2.6.3l-.5 5c-.73-.2-1.5-.3-2.3-.3-2.13 0-3.87.67-5.2 2-1.27 1.4-1.9 3.17-1.9 5.3v13h-5.3v-24.8h4.1l.7 4.5h.3c.8-1.54 1.86-2.73 3.2-3.6a8.44 8.44 0 0 1 4.3-1.4zm0 0"/><path fill="#fff" fill-rule="evenodd" d="M466.6 1047.75c0 4-1.03 7.17-3.1 9.5-2.07 2.27-4.96 3.4-8.7 3.4-2.33 0-4.37-.53-6.1-1.6-1.8-1.07-3.17-2.57-4.1-4.5-1-2-1.5-4.27-1.5-6.8 0-4.07 1.03-7.23 3.1-9.5s5-3.4 8.8-3.4c3.53 0 6.37 1.17 8.5 3.5 2.07 2.33 3.1 5.47 3.1 9.4zm-18 0c0 5.67 2.1 8.5 6.3 8.5 4.2 0 6.3-2.83 6.3-8.5 0-5.73-2.1-8.6-6.3-8.6-2.2 0-3.8.77-4.8 2.3-1 1.33-1.5 3.43-1.5 6.3zm0 0"/><path fill="#fff" d="M482.7 1060.65c-3.73 0-6.6-1.1-8.6-3.3-1.93-2.2-2.9-5.37-2.9-9.5 0-4.14 1.03-7.33 3.1-9.6 2-2.27 4.93-3.4 8.8-3.4 2.67-.07 5.03.43 7.1 1.5l-1.6 4.2c-2.2-.87-4.03-1.3-5.5-1.3-4.33 0-6.47 2.87-6.4 8.6 0 2.8.5 4.9 1.5 6.3 1.07 1.33 2.63 2 4.7 2 2.4 0 4.63-.6 6.7-1.8v4.6a11.67 11.67 0 0 1-3 1.2c-1.07.33-2.37.5-3.9.5zm0 0"/><path fill="#fff" fill-rule="evenodd" d="M506.3 1060.65c-3.87 0-6.9-1.17-9.1-3.5-2.13-2.27-3.2-5.37-3.2-9.3 0-4 1-7.17 3-9.5s4.77-3.5 8.3-3.5c3.27-.07 5.87.93 7.8 3 1.87 1.93 2.8 4.7 2.8 8.3v2.8h-16.5c.07 2.33.7 4.17 1.9 5.5 1.27 1.33 3 2 5.2 2 1.47 0 2.83-.17 4.1-.5 1.27-.2 2.63-.67 4.1-1.4v4.3a16.81 16.81 0 0 1-3.9 1.3c-1.33.27-2.83.43-4.5.5zm-1-21.8c-1.67 0-3 .53-4 1.6s-1.6 2.63-1.8 4.7h11.3c-.07-2.07-.57-3.63-1.5-4.7-1-1.07-2.33-1.6-4-1.6zm0 0"/><path fill="#fff" d="M538.6 1052.95c0 2.53-.87 4.4-2.6 5.6-1.8 1.33-4.33 2-7.6 2-3.33.07-6-.43-8-1.5v-4.6c2.93 1.34 5.67 2 8.2 2 3.2 0 4.8-.97 4.8-2.9 0-.67-.17-1.2-.5-1.6-.4-.33-1-.77-1.8-1.3a950.5 950.5 0 0 0-3.4-1.4c-2.87-1.2-4.8-2.3-5.8-3.3-1-1.2-1.5-2.63-1.5-4.3 0-2.13.83-3.8 2.5-5 1.73-1.27 4.07-1.86 7-1.8 2.93-.06 5.7.53 8.3 1.8l-1.7 4c-2.67-1.13-4.93-1.7-6.8-1.7-2.73 0-4.1.8-4.1 2.4 0 .8.37 1.47 1.1 2 .67.53 2.23 1.27 4.7 2.2 2.07.74 3.57 1.47 4.5 2.2.93.67 1.6 1.43 2 2.3.47.8.7 1.77.7 2.9zm0 0"/><path fill="#fff" fill-rule="evenodd" d="M555.1 1060.65c-3.87 0-6.87-1.17-9-3.5-2.2-2.27-3.3-5.37-3.3-9.3 0-4 1-7.17 3-9.5 2.07-2.33 4.87-3.5 8.4-3.5 3.27-.07 5.83.93 7.7 3 1.93 1.93 2.9 4.7 2.9 8.3v2.8h-16.5c.07 2.33.7 4.17 1.9 5.5s2.93 2 5.2 2c1.47 0 2.83-.17 4.1-.5 1.27-.2 2.63-.67 4.1-1.4v4.3a18.79 18.79 0 0 1-4 1.3c-1.27.27-2.77.43-4.5.5zm-.9-21.8c-1.67 0-3 .53-4 1.6-1.07 1.07-1.7 2.63-1.9 4.7h11.3c0-2.07-.5-3.63-1.5-4.7-.93-1.07-2.23-1.6-3.9-1.6zm0 0"/><path fill="#fff" d="M643.3 1060.15h-18.9v-3.3l12.6-17.5h-11.8v-4h17.7v3.7l-12.3 17.1h12.7v4zm0 0"/><path fill="#fff" fill-rule="evenodd" d="M671.4 1060.65c-3.86 0-6.86-1.17-9-3.5-2.2-2.27-3.3-5.37-3.3-9.3 0-4 1-7.17 3-9.5 2.07-2.33 4.83-3.5 8.3-3.5 3.33-.07 5.93.93 7.8 3 1.93 1.93 2.9 4.7 2.9 8.3v2.8h-16.6c.07 2.33.73 4.17 2 5.5 1.2 1.33 2.93 2 5.2 2 1.47 0 2.84-.17 4.1-.5 1.2-.2 2.53-.67 4-1.4v4.3a16.81 16.81 0 0 1-3.9 1.3c-1.33.27-2.83.43-4.5.5zm-1-21.8c-1.67 0-3 .53-4 1.6s-1.6 2.63-1.8 4.7h11.3c-.07-2.07-.57-3.63-1.5-4.7-.93-1.07-2.27-1.6-4-1.6zm0 0"/><path fill="#fff" d="M692.3 1060.15h-5.2v-35h5.2v35zm55 0H742v-15.3c0-1.87-.37-3.27-1.1-4.2-.73-1-1.86-1.5-3.4-1.5-2 0-3.5.67-4.5 2-.93 1.33-1.4 3.5-1.4 6.5v12.5h-5.3v-24.8h4.2l.7 3.3h.3c.67-1.2 1.67-2.13 3-2.8 1.26-.73 2.7-1.07 4.3-1 3.8-.07 6.33 1.23 7.6 3.9h.3c.73-1.2 1.77-2.13 3.1-2.8 1.33-.74 2.87-1.1 4.6-1.1 3 0 5.16.77 6.5 2.3 1.33 1.47 2 3.73 2 6.8v16.2h-5.2v-15.3c0-1.87-.37-3.27-1.1-4.2-.73-1-1.86-1.5-3.4-1.5-2.07 0-3.57.67-4.5 2-.93 1.27-1.4 3.23-1.4 5.9v13.1zm0 0"/><path fill="#fff" fill-rule="evenodd" d="M781.1 1060.65c-3.87 0-6.87-1.17-9-3.5-2.2-2.27-3.3-5.37-3.3-9.3 0-4 1-7.17 3-9.5 2.07-2.33 4.87-3.5 8.4-3.5 3.27-.07 5.83.93 7.7 3 1.93 1.93 2.9 4.7 2.9 8.3v2.8h-16.6c.07 2.33.73 4.17 2 5.5 1.2 1.33 2.93 2 5.2 2 1.47 0 2.83-.17 4.1-.5 1.2-.2 2.53-.67 4-1.4v4.3a16.81 16.81 0 0 1-3.9 1.3c-1.27.27-2.77.43-4.5.5zm-.9-21.8c-1.73 0-3.1.53-4.1 1.6-1 1.07-1.6 2.63-1.8 4.7h11.3c-.07-2.07-.57-3.63-1.5-4.7-.93-1.07-2.23-1.6-3.9-1.6zm0 0"/><path fill="#fff" d="M818.6 1060.15h-5.3v-15.3c0-1.87-.37-3.27-1.1-4.2-.8-1-2.03-1.5-3.7-1.5-2.27 0-3.9.67-4.9 2-1.07 1.33-1.6 3.5-1.6 6.5v12.5h-5.2v-24.8h4.1l.7 3.3h.3c.73-1.2 1.8-2.13 3.2-2.8 1.4-.73 2.93-1.07 4.6-1 5.93 0 8.9 3.03 8.9 9.1v16.2zm16.6-3.9c1.27 0 2.53-.17 3.8-.5v4c-.53.2-1.27.37-2.2.5a8.46 8.46 0 0 1-2.9.3c-5 0-7.5-2.63-7.5-7.9v-13.4H823v-2.4l3.7-1.9 1.8-5.2h3.2v5.5h7.1v4h-7.1v13.3c0 1.27.34 2.2 1 2.8.6.6 1.43.9 2.5.9zm0 0"/><path fill="#fff" fill-rule="evenodd" d="M854.8 1060.65c-3.87 0-6.87-1.17-9-3.5-2.2-2.27-3.3-5.37-3.3-9.3 0-4 1.03-7.17 3.1-9.5 2-2.33 4.77-3.5 8.3-3.5 3.27-.07 5.83.93 7.7 3 1.93 1.93 2.9 4.7 2.9 8.3v2.8H848c.07 2.33.7 4.17 1.9 5.5s2.93 2 5.2 2c1.47 0 2.83-.17 4.1-.5 1.27-.2 2.63-.67 4.1-1.4v4.3a18.71 18.71 0 0 1-4 1.3c-1.26.27-2.76.43-4.5.5zm-.9-21.8c-1.67 0-3.03.53-4.1 1.6-1 1.07-1.6 2.63-1.8 4.7h11.3c0-2.07-.5-3.63-1.5-4.7-.93-1.07-2.23-1.6-3.9-1.6zm0 0"/><path fill="#fff" d="M891.4 1060.15h-5.3v-15.3c0-1.87-.37-3.27-1.1-4.2-.73-1-1.87-1.5-3.4-1.5-2 0-3.47.67-4.4 2-1 1.33-1.47 3.5-1.4 6.5v12.5h-5.3v-24.8h4.1l.7 3.3h.3a7.53 7.53 0 0 1 3-2.8 8.02 8.02 0 0 1 4.3-1c3.87-.07 6.4 1.23 7.6 3.9h.4c.73-1.2 1.77-2.13 3.1-2.8 1.33-.74 2.87-1.1 4.6-1.1 2.93 0 5.07.77 6.4 2.3 1.4 1.47 2.1 3.73 2.1 6.8v16.2h-5.3v-15.3c0-1.87-.37-3.27-1.1-4.2-.73-1-1.87-1.5-3.4-1.5-2 0-3.5.67-4.5 2-.93 1.27-1.4 3.23-1.4 5.9v13.1zm0 0"/><path fill="#fff" fill-rule="evenodd" d="M55.6 1112.45c-3.13 0-5.57-1.13-7.3-3.4h-.4c.27 2.13.4 3.4.4 3.8v10.2H43v-35.9h4.3c.07.47.3 1.6.7 3.4h.3c1.6-2.53 4.07-3.8 7.4-3.8 3.07 0 5.47 1.13 7.2 3.4 1.73 2.27 2.6 5.43 2.6 9.5 0 4-.9 7.17-2.7 9.5-1.73 2.27-4.13 3.37-7.2 3.3zm-1.3-21.4c-2.07 0-3.6.6-4.6 1.8-.93 1.27-1.4 3.23-1.4 5.9v.8c0 3.07.47 5.27 1.4 6.6.93 1.33 2.5 2 4.7 2 1.8 0 3.2-.73 4.2-2.2 1-1.53 1.5-3.67 1.5-6.4 0-2.8-.5-4.93-1.5-6.4-.93-1.4-2.37-2.1-4.3-2.1zm39.3 8.6c0 4-1.03 7.17-3.1 9.5-2.07 2.27-4.97 3.4-8.7 3.4-2.27 0-4.3-.53-6.1-1.6-1.8-1-3.17-2.5-4.1-4.5-1-1.93-1.5-4.2-1.5-6.8 0-4 1.03-7.13 3.1-9.4 2.07-2.27 5-3.4 8.8-3.4 3.53 0 6.37 1.17 8.5 3.5 2.07 2.2 3.1 5.3 3.1 9.3zm-18 0c0 5.67 2.1 8.5 6.3 8.5 4.2 0 6.3-2.83 6.3-8.5s-2.1-8.5-6.3-8.5c-2.2 0-3.8.73-4.8 2.2-1 1.47-1.5 3.57-1.5 6.3zm40.8 5.3c0 2.4-.9 4.27-2.7 5.6-1.73 1.27-4.27 1.9-7.6 1.9-3.27 0-5.9-.5-7.9-1.5v-4.5c2.87 1.34 5.57 2 8.1 2 3.27 0 4.9-1 4.9-3 0-.6-.17-1.1-.5-1.5-.4-.47-1-.87-1.8-1.2-.87-.54-2-1.07-3.4-1.6-2.87-1.07-4.83-2.17-5.9-3.3-1-1.14-1.5-2.57-1.5-4.3 0-2.13.87-3.8 2.6-5 1.73-1.2 4.07-1.77 7-1.7 2.93-.07 5.7.53 8.3 1.8l-1.7 3.9c-2.73-1.07-5-1.6-6.8-1.6-2.8 0-4.2.76-4.2 2.3 0 .8.37 1.46 1.1 2 .73.53 2.33 1.27 4.8 2.2 2 .8 3.47 1.53 4.4 2.2.94.67 1.63 1.43 2.1 2.3.47.87.7 1.87.7 3zm-12.4-20.8v-.5c.87-1 1.77-2.17 2.7-3.5a82.29 82.29 0 0 0 2.1-3.2h6.2v.4c-.8.93-1.97 2.1-3.5 3.5-1.53 1.46-2.83 2.6-3.9 3.4l-3.6-.1zm0 0"/><path fill="#fff" d="M134.7 1086.75c1 0 1.87.1 2.6.3l-.5 4.9c-.8-.2-1.6-.3-2.4-.3-2.07 0-3.77.7-5.1 2.1-1.33 1.33-2 3.13-2 5.4v13h-5.2v-24.9h4.1l.7 4.4h.3c.8-1.47 1.87-2.63 3.2-3.5 1.33-.86 2.77-1.33 4.3-1.4zm0 0"/><path fill="#fff" fill-rule="evenodd" d="M152.7 1112.45c-3.87 0-6.87-1.13-9-3.4-2.2-2.2-3.3-5.3-3.3-9.3 0-4 1-7.17 3-9.5 2.07-2.33 4.87-3.5 8.4-3.5 3.27 0 5.83 1 7.7 3 1.93 2 2.9 4.73 2.9 8.2v2.8h-16.6c.07 2.46.73 4.33 2 5.6 1.2 1.27 2.93 1.9 5.2 1.9 1.47 0 2.83-.13 4.1-.4 1.2-.27 2.53-.73 4-1.4v4.3a16.67 16.67 0 0 1-3.9 1.3c-1.27.27-2.77.4-4.5.4zm-.9-21.7c-1.73 0-3.1.54-4.1 1.6-1 1.07-1.6 2.6-1.8 4.6h11.3c-.07-2.07-.57-3.6-1.5-4.6-.93-1.06-2.23-1.6-3.9-1.6zm24.9 21.7c-3.07 0-5.47-1.13-7.2-3.4-1.73-2.2-2.6-5.34-2.6-9.4 0-4.07.87-7.23 2.6-9.5 1.73-2.27 4.17-3.4 7.3-3.4 3.27 0 5.77 1.2 7.5 3.6h.2c-.2-1.8-.3-3.2-.3-4.2v-9.1h5.3v35h-4.2l-.9-3.3h-.2c-1.73 2.47-4.23 3.7-7.5 3.7zm1.4-4.3c2.2 0 3.8-.57 4.8-1.7 1-1.2 1.5-3.2 1.5-6v-.8c0-3.13-.5-5.3-1.5-6.5-1-1.33-2.6-2-4.8-2-1.87 0-3.3.77-4.3 2.3-1 1.47-1.5 3.6-1.5 6.4 0 2.73.5 4.83 1.5 6.3.93 1.33 2.37 2 4.3 2zm0 0"/><path fill="#fff" d="M218.8 1112.15h-5.3v-15.3c0-2-.37-3.43-1.1-4.3-.8-.93-2.03-1.4-3.7-1.4-2.2 0-3.83.67-4.9 2-1 1.27-1.5 3.43-1.5 6.5v12.5H197v-25h4.1l.8 3.3h.2c.8-1.2 1.87-2.13 3.2-2.8 1.4-.6 2.93-.9 4.6-.9 5.93 0 8.9 3.04 8.9 9.1v16.3zm0 0"/><path fill="#fff" fill-rule="evenodd" d="M231.4 1112.15h-5.2v-25h5.2v25zm-5.5-31.4c0-.93.23-1.63.7-2.1.53-.53 1.3-.8 2.3-.8.87 0 1.57.27 2.1.8s.8 1.23.8 2.1c0 .93-.26 1.63-.8 2.1-.53.53-1.23.8-2.1.8-1 0-1.77-.27-2.3-.8-.47-.47-.7-1.17-.7-2.1zm0 0"/><path fill="#fff" d="M259.9 1112.15h-5.3v-15.5c0-1.87-.37-3.27-1.1-4.2-.67-.93-1.77-1.4-3.3-1.4-2.07.07-3.57.73-4.5 2-.93 1.33-1.4 3.53-1.4 6.6v12.4H239v-24.9h4.1l.7 3.3h.3a7.57 7.57 0 0 1 3-2.8c1.33-.6 2.77-.9 4.3-.9 3.87 0 6.4 1.3 7.6 3.9h.4c.73-1.2 1.77-2.17 3.1-2.9 1.33-.67 2.87-1 4.6-1 2.93 0 5.07.73 6.4 2.2 1.4 1.53 2.1 3.84 2.1 6.9v16.2h-5.3v-15.4c0-1.86-.37-3.27-1.1-4.2-.73-.93-1.87-1.4-3.4-1.4-2 0-3.5.63-4.5 1.9-.93 1.27-1.4 3.23-1.4 5.9v13.3zm0 0"/><path fill="#fff" fill-rule="evenodd" d="m310.4 1112.15-1.1-3.5h-.1c-1.2 1.53-2.43 2.53-3.7 3-1.2.53-2.73.8-4.6.8-2.47 0-4.37-.67-5.7-2-1.4-1.27-2.1-3.1-2.1-5.5 0-2.53.97-4.47 2.9-5.8 1.87-1.33 4.77-2.03 8.7-2.1l4.2-.1v-1.3c0-1.6-.36-2.8-1.1-3.6-.73-.8-1.87-1.2-3.4-1.2-1.27 0-2.5.2-3.7.6-1.13.33-2.23.76-3.3 1.3l-1.7-3.8c1.34-.67 2.8-1.2 4.4-1.6 1.6-.33 3.1-.5 4.5-.5 3.13 0 5.5.67 7.1 2 1.67 1.4 2.5 3.57 2.5 6.5v16.8h-3.8zm-7.9-3.6c1.93 0 3.47-.53 4.6-1.6 1.2-1.07 1.8-2.57 1.8-4.5v-2.2l-3.2.1c-2.47.13-4.27.57-5.4 1.3-1.13.73-1.7 1.87-1.7 3.4 0 1.13.3 2 .9 2.6.73.6 1.73.9 3 .9zm43.6 3.9c-3.2 0-5.67-1.13-7.4-3.4h-.3c.2 2.13.3 3.4.3 3.8v10.2h-5.2v-35.9h4.2c.13.47.4 1.6.8 3.4h.2c1.67-2.53 4.17-3.8 7.5-3.8 3.07 0 5.47 1.13 7.2 3.4 1.73 2.27 2.6 5.43 2.6 9.5 0 4-.9 7.17-2.7 9.5-1.73 2.27-4.13 3.37-7.2 3.3zm-1.3-21.4c-2.13 0-3.67.6-4.6 1.8-1 1.27-1.5 3.23-1.5 5.9v.8c0 3.07.5 5.27 1.5 6.6.93 1.33 2.5 2 4.7 2 1.8 0 3.2-.73 4.2-2.2 1-1.53 1.5-3.67 1.5-6.4 0-2.8-.5-4.93-1.5-6.4-1-1.4-2.43-2.1-4.3-2.1zm0 0"/><path fill="#fff" d="M374.7 1086.75c1.07 0 1.93.1 2.6.3l-.5 4.9c-.73-.2-1.5-.3-2.3-.3-2.13 0-3.87.7-5.2 2.1-1.26 1.33-1.9 3.13-1.9 5.4v13h-5.3v-24.9h4.1l.7 4.4h.3c.8-1.47 1.87-2.63 3.2-3.5 1.33-.86 2.77-1.33 4.3-1.4zm0 0"/><path fill="#fff" fill-rule="evenodd" d="M403.9 1099.65c0 4-1.03 7.17-3.1 9.5-2.07 2.27-4.97 3.4-8.7 3.4-2.33 0-4.37-.53-6.1-1.6-1.8-1-3.17-2.5-4.1-4.5-1-1.93-1.5-4.2-1.5-6.8 0-4 1.03-7.13 3.1-9.4 2.07-2.27 5-3.4 8.8-3.4 3.53 0 6.37 1.17 8.5 3.5 2.07 2.2 3.1 5.3 3.1 9.3zm-18 0c0 5.67 2.1 8.5 6.3 8.5 4.2 0 6.3-2.83 6.3-8.5s-2.1-8.5-6.3-8.5c-2.2 0-3.8.73-4.8 2.2-1 1.47-1.5 3.57-1.5 6.3zm0 0"/><path fill="#fff" d="M420 1112.45c-3.73 0-6.6-1.1-8.6-3.3-1.93-2.2-2.9-5.33-2.9-9.4 0-4.13 1.04-7.33 3.1-9.6 2-2.27 4.93-3.4 8.8-3.4 2.67 0 5.03.47 7.1 1.4l-1.6 4.3c-2.2-.87-4.03-1.3-5.5-1.3-4.33.07-6.5 2.93-6.5 8.6 0 2.8.53 4.87 1.6 6.2 1.07 1.4 2.63 2.1 4.7 2.1 2.4.07 4.63-.5 6.7-1.7v4.6a11.67 11.67 0 0 1-3 1.2c-1.07.2-2.37.3-3.9.3zm0 0"/><path fill="#fff" fill-rule="evenodd" d="M443.6 1112.45c-3.87 0-6.9-1.13-9.1-3.4-2.13-2.2-3.2-5.3-3.2-9.3 0-4 1-7.17 3-9.5s4.77-3.5 8.3-3.5c3.27 0 5.87 1 7.8 3 1.87 2 2.8 4.73 2.8 8.2v2.8h-16.5c.07 2.46.7 4.33 1.9 5.6 1.27 1.27 3 1.9 5.2 1.9 1.47 0 2.83-.13 4.1-.4 1.27-.27 2.64-.73 4.1-1.4v4.3a16.64 16.64 0 0 1-3.9 1.3c-1.33.27-2.83.4-4.5.4zm-1-21.7c-1.67 0-3 .54-4 1.6-1 1.07-1.6 2.6-1.8 4.6H448c0-2.07-.46-3.6-1.4-4.6-1-1.06-2.33-1.6-4-1.6zm0 0"/><path fill="#fff" d="M475.9 1104.95c0 2.4-.9 4.27-2.7 5.6-1.73 1.27-4.23 1.9-7.5 1.9-3.33 0-6-.5-8-1.5v-4.5c2.93 1.34 5.63 2 8.1 2 3.27 0 4.9-1 4.9-3 0-.6-.16-1.1-.5-1.5-.4-.47-1-.87-1.8-1.2-.8-.54-1.93-1.07-3.4-1.6-2.87-1.07-4.8-2.17-5.8-3.3-1-1.14-1.5-2.57-1.5-4.3 0-2.13.83-3.8 2.5-5 1.73-1.2 4.07-1.77 7-1.7 2.93-.07 5.7.53 8.3 1.8l-1.7 3.9c-2.67-1.07-4.93-1.6-6.8-1.6-2.73 0-4.1.76-4.1 2.3 0 .8.33 1.46 1 2 .73.53 2.33 1.27 4.8 2.2 2.07.8 3.57 1.53 4.5 2.2.87.67 1.53 1.43 2 2.3.47.87.7 1.87.7 3zm0 0"/><path fill="#fff" fill-rule="evenodd" d="M492.4 1112.45c-3.87 0-6.87-1.13-9-3.4-2.2-2.2-3.3-5.3-3.3-9.3 0-4 1-7.17 3-9.5 2.07-2.33 4.87-3.5 8.4-3.5 3.27 0 5.83 1 7.7 3 1.93 2 2.9 4.73 2.9 8.2v2.8h-16.5c.07 2.46.7 4.33 1.9 5.6 1.2 1.27 2.93 1.9 5.2 1.9 1.47 0 2.83-.13 4.1-.4 1.27-.27 2.63-.73 4.1-1.4v4.3a18.58 18.58 0 0 1-4 1.3c-1.27.27-2.77.4-4.5.4zm-.9-21.7c-1.67 0-3.03.54-4.1 1.6-1 1.07-1.6 2.6-1.8 4.6h11.3c0-2.07-.5-3.6-1.5-4.6-.93-1.06-2.23-1.6-3.9-1.6zm0 0"/><path fill="#fff" d="M529 1112.15h-5.3v-15.5c0-1.87-.37-3.27-1.1-4.2-.73-.93-1.87-1.4-3.4-1.4-2 .07-3.47.73-4.4 2-1 1.33-1.5 3.53-1.5 6.6v12.4h-5.2v-24.9h4.1l.7 3.3h.3a7.62 7.62 0 0 1 3-2.8 10.41 10.41 0 0 1 4.3-.9c3.87 0 6.4 1.3 7.6 3.9h.4c.73-1.2 1.77-2.17 3.1-2.9 1.33-.67 2.87-1 4.6-1 2.93 0 5.07.73 6.4 2.2 1.4 1.53 2.1 3.84 2.1 6.9v16.2h-5.3v-15.4c0-1.86-.36-3.27-1.1-4.2-.73-.93-1.87-1.4-3.4-1.4-2.07 0-3.57.63-4.5 1.9-.93 1.27-1.4 3.23-1.4 5.9v13.3zm56.8 0h-5.3v-15.3c0-2-.4-3.43-1.2-4.3-.73-.93-1.93-1.4-3.6-1.4-2.27 0-3.9.67-4.9 2-1.07 1.27-1.6 3.43-1.6 6.5v12.5H564v-25h4.1l.7 3.3h.3c.73-1.2 1.8-2.13 3.2-2.8 1.33-.6 2.87-.9 4.6-.9 5.93 0 8.9 3.04 8.9 9.1v16.3zm0 0"/><path fill="#fff" fill-rule="evenodd" d="M598.4 1112.15h-5.3v-25h5.3v25zm-5.6-31.4c0-.93.27-1.63.8-2.1.53-.53 1.27-.8 2.2-.8.93 0 1.67.27 2.2.8.47.53.73 1.23.8 2.1-.07.93-.33 1.63-.8 2.1-.53.53-1.27.8-2.2.8-.93 0-1.67-.27-2.2-.8-.53-.47-.8-1.17-.8-2.1zm24 31.7c-3.87 0-6.9-1.13-9.1-3.4-2.13-2.2-3.2-5.3-3.2-9.3 0-4 1-7.17 3-9.5s4.77-3.5 8.3-3.5c3.27 0 5.87 1 7.8 3 1.87 2 2.8 4.73 2.8 8.2v2.8h-16.5c.07 2.46.7 4.33 1.9 5.6 1.27 1.27 3 1.9 5.2 1.9 1.47 0 2.83-.13 4.1-.4 1.27-.27 2.63-.73 4.1-1.4v4.3a16.64 16.64 0 0 1-3.9 1.3c-1.33.27-2.83.4-4.5.4zm-1-21.7c-1.67 0-3 .54-4 1.6-1 1.07-1.6 2.6-1.8 4.6h11.3c-.07-2.07-.57-3.6-1.5-4.6-1-1.06-2.33-1.6-4-1.6zm29.2 21.7c-3.13 0-5.57-1.13-7.3-3.4h-.3c.2 2.13.3 3.4.3 3.8v10.2h-5.3v-35.9h4.3c.13.47.37 1.6.7 3.4h.3c1.67-2.53 4.13-3.8 7.4-3.8 3.07 0 5.47 1.13 7.2 3.4 1.74 2.27 2.6 5.43 2.6 9.5 0 4-.86 7.17-2.6 9.5-1.73 2.27-4.17 3.37-7.3 3.3zm-1.3-21.4c-2.07 0-3.6.6-4.6 1.8-.93 1.27-1.4 3.23-1.4 5.9v.8c0 3.07.47 5.27 1.4 6.6 1 1.33 2.57 2 4.7 2 1.87 0 3.27-.73 4.2-2.2 1-1.53 1.5-3.67 1.5-6.4 0-2.8-.47-4.93-1.4-6.4-1-1.4-2.47-2.1-4.4-2.1zm39.4 8.6c0 4-1.03 7.17-3.1 9.5-2.13 2.27-5.03 3.4-8.7 3.4-2.33 0-4.4-.53-6.2-1.6-1.73-1-3.1-2.5-4.1-4.5-.93-1.93-1.4-4.2-1.4-6.8 0-4 1.03-7.13 3.1-9.4 2.07-2.27 4.97-3.4 8.7-3.4 3.6 0 6.43 1.17 8.5 3.5 2.13 2.2 3.2 5.3 3.2 9.3zm-18.1 0c0 5.67 2.13 8.5 6.4 8.5 4.14 0 6.23-2.83 6.3-8.5-.07-5.67-2.2-8.5-6.4-8.5-2.2 0-3.8.73-4.8 2.2-1 1.47-1.5 3.57-1.5 6.3zm0 0"/><path fill="#fff" d="M705.8 1104.95c0 2.4-.87 4.27-2.6 5.6-1.8 1.27-4.33 1.9-7.6 1.9-3.33 0-6-.5-8-1.5v-4.5c2.93 1.34 5.67 2 8.2 2 3.2 0 4.8-1 4.8-3 0-.6-.17-1.1-.5-1.5-.33-.47-.93-.87-1.8-1.2-.8-.54-1.93-1.07-3.4-1.6-2.87-1.07-4.8-2.17-5.8-3.3-1-1.14-1.5-2.57-1.5-4.3 0-2.13.83-3.8 2.5-5 1.73-1.2 4.07-1.77 7-1.7 2.93-.07 5.7.53 8.3 1.8l-1.7 3.9c-2.67-1.07-4.93-1.6-6.8-1.6-2.73 0-4.1.76-4.1 2.3 0 .8.37 1.46 1.1 2 .67.53 2.23 1.27 4.7 2.2 2.07.8 3.57 1.53 4.5 2.2.93.67 1.6 1.43 2 2.3.47.87.7 1.87.7 3zm0 0"/><path fill="#fff" fill-rule="evenodd" d="M716.8 1112.15h-5.3v-25h5.3v25zm-5.6-31.4c0-.93.27-1.63.8-2.1.53-.53 1.27-.8 2.2-.8.93 0 1.63.27 2.1.8.53.53.8 1.23.8 2.1 0 .93-.27 1.63-.8 2.1-.47.53-1.17.8-2.1.8-.93 0-1.67-.27-2.2-.8-.53-.47-.8-1.17-.8-2.1zm28.6 31.4-1-3.5h-.2c-1.2 1.53-2.4 2.53-3.6 3-1.2.53-2.77.8-4.7.8-2.4 0-4.3-.67-5.7-2-1.33-1.27-2-3.1-2-5.5 0-2.53.93-4.47 2.8-5.8 1.93-1.33 4.83-2.03 8.7-2.1l4.3-.1v-1.3c0-1.6-.37-2.8-1.1-3.6-.73-.8-1.9-1.2-3.5-1.2-1.27 0-2.47.2-3.6.6-1.2.33-2.33.76-3.4 1.3l-1.7-3.8c1.33-.67 2.8-1.2 4.4-1.6 1.6-.33 3.13-.5 4.6-.5 3.13 0 5.5.67 7.1 2 1.6 1.4 2.4 3.57 2.4 6.5v16.8h-3.8zm-7.8-3.6c1.93 0 3.47-.53 4.6-1.6 1.13-1.07 1.7-2.57 1.7-4.5v-2.2l-3.1.1c-2.53.13-4.37.57-5.5 1.3-1.13.73-1.7 1.87-1.7 3.4 0 1.13.33 2 1 2.6.67.6 1.67.9 3 .9zm27.4 3.9c-3.13 0-5.57-1.13-7.3-3.4-1.73-2.2-2.6-5.34-2.6-9.4 0-4.07.87-7.23 2.6-9.5 1.8-2.27 4.23-3.4 7.3-3.4 3.27 0 5.77 1.2 7.5 3.6h.3c-.27-1.8-.4-3.2-.4-4.2v-9.1h5.3v35h-4.2l-.9-3.3h-.2c-1.73 2.47-4.2 3.7-7.4 3.7zm1.4-4.3c2.13 0 3.7-.57 4.7-1.7 1-1.2 1.5-3.2 1.5-6v-.8c0-3.13-.5-5.3-1.5-6.5-1-1.33-2.6-2-4.8-2-1.87 0-3.3.77-4.3 2.3-1 1.47-1.5 3.6-1.5 6.4 0 2.73.5 4.83 1.5 6.3.93 1.33 2.4 2 4.4 2zm34.4 4-1.1-3.5h-.2c-1.2 1.53-2.4 2.53-3.6 3-1.2.53-2.76.8-4.7.8-2.4 0-4.3-.67-5.7-2-1.33-1.27-2-3.1-2-5.5 0-2.53.93-4.47 2.8-5.8 1.93-1.33 4.84-2.03 8.7-2.1l4.3-.1v-1.3c0-1.6-.37-2.8-1.1-3.6-.73-.8-1.9-1.2-3.5-1.2-1.27 0-2.47.2-3.6.6-1.2.33-2.33.76-3.4 1.3l-1.7-3.8a21.41 21.41 0 0 1 4.4-1.6c1.6-.33 3.1-.5 4.5-.5 3.2 0 5.6.67 7.2 2 1.6 1.4 2.4 3.57 2.4 6.5v16.8h-3.7zm-7.8-3.6c1.87 0 3.4-.53 4.6-1.6 1.13-1.07 1.7-2.57 1.7-4.5v-2.2l-3.2.1c-2.47.13-4.27.57-5.4 1.3-1.13.73-1.7 1.87-1.7 3.4 0 1.13.33 2 1 2.6.67.6 1.67.9 3 .9zm16.3 14.6c-1.53 0-2.83-.2-3.9-.6v-4.1c1 .26 2.03.4 3.1.4 2.27 0 3.4-1.3 3.4-3.9v-27.7h5.3v28.1c0 2.53-.7 4.47-2.1 5.8-1.33 1.33-3.27 2-5.8 2zm2.3-42.5c0-1 .23-1.73.7-2.2.53-.53 1.3-.8 2.3-.8.87 0 1.57.27 2.1.8.53.47.8 1.2.8 2.2 0 .87-.27 1.56-.8 2.1s-1.23.8-2.1.8c-1 0-1.77-.27-2.3-.8-.47-.54-.7-1.23-.7-2.1zm27.6 28h-.2c-1.2 1.53-2.4 2.53-3.6 3-1.27.53-2.83.8-4.7.8-2.4 0-4.3-.67-5.7-2-1.4-1.27-2.1-3.1-2.1-5.5 0-2.53.97-4.47 2.9-5.8s4.83-2.03 8.7-2.1l4.3-.1v-1.3c0-1.6-.37-2.8-1.1-3.6-.73-.8-1.9-1.2-3.5-1.2-1.27 0-2.47.2-3.6.6-1.2.33-2.33.76-3.4 1.3l-1.7-3.8a21.41 21.41 0 0 1 4.4-1.6c1.6-.33 3.1-.5 4.5-.5 3.2 0 5.6.67 7.2 2 1.6 1.4 2.4 3.57 2.4 6.5v16.8h-3.8l-1-3.5zm-6.8-.1c1.87 0 3.4-.53 4.6-1.6 1.13-1.07 1.7-2.57 1.7-4.5v-2.2l-3.2.1c-2.47.13-4.27.57-5.4 1.3-1.13.73-1.7 1.87-1.7 3.4 0 1.13.33 2 1 2.6.67.6 1.67.9 3 .9zm8.8 6.3c.53-.87 1.33-1.77 2.4-2.7h-3.4c-1.4 1-2.37 1.97-2.9 2.9-.6.93-.9 1.9-.9 2.9 0 1.47.43 2.6 1.3 3.4.87.86 2.13 1.3 3.8 1.3a10.59 10.59 0 0 0 3.2-.5v-3.2c-.93.26-1.73.4-2.4.4-1.27 0-1.9-.67-1.9-2 0-.87.27-1.7.8-2.5zm0 0"/><path fill="#fff" d="M855.8 1112.45c-3.8 0-6.67-1.1-8.6-3.3-1.93-2.2-2.9-5.33-2.9-9.4 0-4.13 1-7.33 3-9.6 2.07-2.27 5.03-3.4 8.9-3.4 2.6 0 4.97.47 7.1 1.4l-1.6 4.3c-2.27-.87-4.13-1.3-5.6-1.3-4.27.07-6.4 2.93-6.4 8.6 0 2.8.53 4.87 1.6 6.2 1.07 1.4 2.63 2.1 4.7 2.1 2.33.07 4.57-.5 6.7-1.7v4.6a11.67 11.67 0 0 1-3 1.2c-1.13.2-2.43.3-3.9.3zm8.9-25.2h5.8l5 14c.8 2 1.33 3.93 1.6 5.8h.1c.13-.87.4-1.87.8-3 .33-1.2 2.23-6.8 5.7-16.8h5.7l-10.6 28.2c-1.93 5.13-5.17 7.7-9.7 7.7-1.13 0-2.27-.13-3.4-.4v-4.2c.8.13 1.7.2 2.7.2 2.53 0 4.33-1.46 5.4-4.4l.9-2.3-10-24.8zm49.4 24.9h-5.3v-15.5c0-1.87-.37-3.27-1.1-4.2-.73-.93-1.87-1.4-3.4-1.4-2 .07-3.5.73-4.5 2-.93 1.33-1.4 3.53-1.4 6.6v12.4h-5.2v-24.9h4.1l.7 3.3h.3c.67-1.2 1.67-2.13 3-2.8 1.27-.6 2.7-.9 4.3-.9 3.8 0 6.33 1.3 7.6 3.9h.4c.73-1.2 1.77-2.17 3.1-2.9 1.27-.67 2.77-1 4.5-1 3 0 5.17.73 6.5 2.2 1.34 1.53 2 3.84 2 6.9v16.2h-5.2v-15.4c0-1.86-.37-3.27-1.1-4.2-.73-.93-1.86-1.4-3.4-1.4-2.07 0-3.57.63-4.5 1.9-.93 1.27-1.4 3.23-1.4 5.9v13.3zm-861.9 48.1c1.34 0 2.63-.2 3.9-.6v3.9c-.6.27-1.37.5-2.3.7-.87.2-1.8.3-2.8.3-5-.07-7.5-2.7-7.5-7.9v-13.4h-3.4v-2.5l3.6-1.9 1.8-5.3h3.3v5.6h7v4h-7v13.3c0 1.27.3 2.2.9 2.8.67.6 1.5.93 2.5 1zm0 0"/><path fill="#fff" fill-rule="evenodd" d="M71.9 1164.45c-3.87 0-6.9-1.1-9.1-3.3-2.13-2.33-3.2-5.43-3.2-9.3 0-4.06 1-7.27 3-9.6s4.77-3.5 8.3-3.5c3.27 0 5.87 1 7.8 3 1.87 2 2.8 4.73 2.8 8.2v2.9H65c.07 2.4.7 4.23 1.9 5.5 1.27 1.33 3 2 5.2 2 1.47 0 2.83-.13 4.1-.4 1.27-.33 2.63-.8 4.1-1.4v4.3a16.81 16.81 0 0 1-3.9 1.3c-1.33.2-2.83.3-4.5.3zm-1-21.8c-1.67.07-3 .6-4 1.6-1 1.07-1.6 2.63-1.8 4.7h11.3c-.07-2.07-.57-3.63-1.5-4.7-1-1-2.33-1.5-4-1.5v-.1zm37.6-3.4v2.9l-4.3.8c.4.47.73 1.1 1 1.9.27.73.4 1.53.4 2.4 0 2.53-.87 4.53-2.6 6-1.8 1.46-4.23 2.2-7.3 2.2a22.39 22.39 0 0 1-2.2-.1c-1.13.67-1.7 1.47-1.7 2.4 0 .6.27 1.03.8 1.3s1.5.4 2.9.4h4.4c2.73 0 4.8.6 6.2 1.8 1.4 1.13 2.1 2.8 2.1 5 0 2.87-1.17 5.03-3.5 6.5-2.27 1.53-5.6 2.3-10 2.3-3.4 0-5.97-.6-7.7-1.8-1.8-1.2-2.7-2.9-2.7-5.1 0-1.53.47-2.8 1.4-3.8 1-1.07 2.37-1.8 4.1-2.2a4.68 4.68 0 0 1-1.8-1.4c-.47-.67-.7-1.37-.7-2.1 0-.94.27-1.73.8-2.4.53-.67 1.33-1.3 2.4-1.9-1.33-.53-2.4-1.43-3.2-2.7-.8-1.27-1.2-2.73-1.2-4.4 0-2.67.87-4.77 2.6-6.3 1.67-1.47 4.1-2.2 7.3-2.2.67 0 1.4.07 2.2.2.73.07 1.3.17 1.7.3h8.6zm-19.5 28.7c0 1.13.5 2 1.5 2.6 1.07.6 2.53.9 4.4.9 2.87 0 5-.4 6.4-1.2 1.4-.87 2.1-1.96 2.1-3.3 0-1.07-.4-1.83-1.2-2.3-.73-.47-2.17-.7-4.3-.7h-4c-1.47 0-2.67.37-3.6 1.1-.87.67-1.3 1.63-1.3 2.9zm2.3-20.7c0 1.54.4 2.73 1.2 3.6.8.8 1.93 1.23 3.4 1.3 3.07 0 4.6-1.63 4.6-4.9 0-1.73-.37-3-1.1-3.8-.8-.87-1.97-1.3-3.5-1.3s-2.7.43-3.5 1.3c-.73.8-1.1 2.07-1.1 3.8zm43.8 4.2c0 4.07-1.03 7.23-3.1 9.5-2.07 2.27-4.97 3.43-8.7 3.5-2.33 0-4.37-.5-6.1-1.5-1.8-1.07-3.2-2.57-4.2-4.5-.93-2-1.4-4.33-1.4-7 0-4 1.03-7.13 3.1-9.4 2.07-2.27 4.97-3.4 8.7-3.4 3.6 0 6.47 1.17 8.6 3.5 2.07 2.33 3.1 5.43 3.1 9.3zm-18.1 0c0 5.8 2.13 8.67 6.4 8.6 4.2.07 6.3-2.8 6.3-8.6 0-5.66-2.13-8.5-6.4-8.5-2.2 0-3.8.73-4.8 2.2-1 1.47-1.5 3.57-1.5 6.3zm47 13c-3.87 0-6.9-1.1-9.1-3.3-2.2-2.33-3.3-5.43-3.3-9.3 0-4.06 1.03-7.27 3.1-9.6 2-2.33 4.77-3.5 8.3-3.5 3.27 0 5.83 1 7.7 3 1.93 2 2.9 4.73 2.9 8.2v2.9h-16.5c.07 2.4.7 4.23 1.9 5.5 1.2 1.33 2.93 2 5.2 2 1.47 0 2.83-.13 4.1-.4 1.27-.33 2.63-.8 4.1-1.4v4.3a18.79 18.79 0 0 1-4 1.3c-1.27.2-2.73.3-4.4.3zm-1-21.8c-1.67.07-3 .6-4 1.6-1.07 1.07-1.7 2.63-1.9 4.7h11.3c0-2.07-.5-3.63-1.5-4.7-.93-1-2.23-1.5-3.9-1.5v-.1zm0 0"/><path fill="#fff" d="M184.9 1163.95h-5.3v-34.9h5.3v34.9zm0 0"/><path fill="#fff" fill-rule="evenodd" d="M203.2 1164.45c-3.87 0-6.87-1.1-9-3.3-2.2-2.33-3.3-5.43-3.3-9.3 0-4.06 1-7.27 3-9.6 2.07-2.33 4.87-3.5 8.4-3.5 3.27 0 5.83 1 7.7 3 1.93 2 2.9 4.73 2.9 8.2v2.9h-16.5c.07 2.4.7 4.23 1.9 5.5 1.2 1.33 2.93 2 5.2 2 1.47 0 2.83-.13 4.1-.4 1.27-.33 2.63-.8 4.1-1.4v4.3a18.64 18.64 0 0 1-4 1.3c-1.27.2-2.77.3-4.5.3zm-.9-21.8c-1.67.07-3.03.6-4.1 1.6-1 1.07-1.6 2.63-1.8 4.7h11.3c0-2.07-.5-3.63-1.5-4.7-.93-1-2.23-1.5-3.9-1.5v-.1zm0 0"/><path fill="#fff" d="M239.8 1163.95h-5.3v-15.3c0-1.93-.37-3.33-1.1-4.2-.73-1-1.87-1.5-3.4-1.5-2 0-3.47.67-4.4 2-1 1.34-1.5 3.53-1.5 6.6v12.4h-5.2v-24.8l4.1.1.7 3.2h.3c.73-1.13 1.73-2.03 3-2.7a9.46 9.46 0 0 1 4.3-1c3.87 0 6.4 1.3 7.6 3.9h.4c.74-1.2 1.77-2.13 3.1-2.8 1.33-.73 2.87-1.1 4.6-1.1 2.93 0 5.07.77 6.4 2.3 1.4 1.47 2.1 3.73 2.1 6.8v16.2h-5.3v-15.3c0-1.93-.37-3.37-1.1-4.3-.73-.93-1.87-1.4-3.4-1.4-2.07 0-3.57.66-4.5 2-.93 1.27-1.4 3.23-1.4 5.9v13zm0 0"/><path fill="#fff" fill-rule="evenodd" d="M273.7 1164.45c-3.87 0-6.9-1.1-9.1-3.3-2.2-2.33-3.27-5.43-3.2-9.3-.07-4.06.93-7.27 3-9.6 2-2.33 4.77-3.5 8.3-3.5 3.27 0 5.84 1 7.7 3 1.93 2 2.9 4.73 2.9 8.2v2.9h-16.5c.07 2.4.7 4.23 1.9 5.5 1.27 1.33 3 2 5.2 2 1.47 0 2.83-.13 4.1-.4 1.27-.33 2.63-.8 4.1-1.4v4.3c-1.33.6-2.63 1.03-3.9 1.3-1.33.2-2.83.3-4.5.3zm-1-21.8c-1.67.07-3 .6-4 1.6-1 1.07-1.6 2.63-1.8 4.7h11.2c0-2.07-.5-3.63-1.5-4.7-.93-1-2.23-1.5-3.9-1.5v-.1zm0 0"/><path fill="#fff" d="M311.1 1163.95h-5.3v-15.3c0-1.8-.37-3.2-1.1-4.2-.8-1-2.03-1.5-3.7-1.5-2.2 0-3.83.67-4.9 2-1 1.34-1.5 3.53-1.5 6.6v12.4h-5.3v-24.8l4.1.1.8 3.2h.2c.8-1.13 1.86-2.03 3.2-2.7 1.4-.67 2.93-1 4.6-1 5.93 0 8.9 3 8.9 9v16.2zm16.6-3.7c1.27 0 2.57-.2 3.9-.6v3.9c-.6.27-1.37.5-2.3.7-.93.2-1.87.3-2.8.3-5-.07-7.5-2.7-7.5-7.9v-13.4h-3.4v-2.5l3.6-1.9 1.8-5.3h3.3v5.6h7v4h-7v13.3c0 1.27.3 2.2.9 2.8.67.6 1.5.93 2.5 1zm26.4 3.7-.8-3.3h-.3c-.73 1.2-1.77 2.14-3.1 2.8-1.33.67-2.87 1-4.6 1-3-.07-5.27-.83-6.8-2.3-1.46-1.4-2.2-3.63-2.2-6.7v-16.3l5.3.1v15.2c0 1.87.4 3.3 1.2 4.3.8 1 2.03 1.5 3.7 1.5 2.2 0 3.8-.67 4.8-2 1.07-1.33 1.6-3.6 1.6-6.8v-12.2h5.3v24.7h-4.1zm237.6-103.8h-5.3v-15.3c0-1.87-.36-3.27-1.1-4.2-.73-1-1.87-1.5-3.4-1.5-2 0-3.47.67-4.4 2-1 1.33-1.47 3.5-1.4 6.5v12.5h-5.3v-24.8h4.1l.7 3.3h.3c.66-1.2 1.66-2.13 3-2.8a8.02 8.02 0 0 1 4.3-1c3.86-.07 6.4 1.23 7.6 3.9h.4c.73-1.2 1.77-2.13 3.1-2.8 1.33-.74 2.87-1.1 4.6-1.1 2.93 0 5.07.77 6.4 2.3 1.4 1.47 2.1 3.73 2.1 6.8v16.2h-5.3v-15.3c0-1.87-.37-3.27-1.1-4.2-.74-1-1.87-1.5-3.4-1.5-2.07 0-3.57.67-4.5 2-.93 1.27-1.4 3.23-1.4 5.9v13.1zm155.6 0H742v-15.3c0-1.87-.37-3.27-1.1-4.2-.73-1-1.86-1.5-3.4-1.5-2 0-3.5.67-4.5 2-.93 1.33-1.4 3.5-1.4 6.5v12.5h-5.3v-24.8h4.2l.7 3.3h.3c.67-1.2 1.67-2.13 3-2.8 1.26-.73 2.7-1.07 4.3-1 3.8-.07 6.33 1.23 7.6 3.9h.3c.73-1.2 1.77-2.13 3.1-2.8 1.33-.74 2.87-1.1 4.6-1.1 3 0 5.16.77 6.5 2.3 1.33 1.47 2 3.73 2 6.8v16.2h-5.2v-15.3c0-1.87-.37-3.27-1.1-4.2-.73-1-1.86-1.5-3.4-1.5-2.07 0-3.57.67-4.5 2-.93 1.27-1.4 3.23-1.4 5.9v13.1zm0 0"/><path fill="#fff" fill-rule="evenodd" d="M711.2 1060.95c-3.87 0-6.87-1.16-9-3.5-2.2-2.27-3.3-5.37-3.3-9.3 0-4 1-7.17 3-9.5s4.77-3.5 8.3-3.5c3.34-.07 5.93.93 7.8 3 1.87 1.93 2.8 4.7 2.8 8.3v2.8h-16.5c.07 2.33.74 4.17 2 5.5 1.2 1.33 2.9 2 5.1 2 1.53 0 2.93-.17 4.2-.5 1.2-.2 2.53-.67 4-1.4v4.3a16.67 16.67 0 0 1-3.9 1.3c-1.33.27-2.83.43-4.5.5zm-1-21.8c-1.66 0-3 .53-4 1.6s-1.6 2.63-1.8 4.7h11.3c-.07-2.07-.57-3.63-1.5-4.7-1-1.07-2.33-1.6-4-1.6zm0 0"/><path stroke="#000" d="M1196.7 1187.4v-5.3h3v5.3h-3zm0 0"/><path stroke="#000" d="M1194.6 1199.5V.6h5.1v1198.9h-5.1zm0 0"/><path d="M1033.6 237.2c27.5 0 49.9 22.3 49.9 49.8 0 27.6-22.4 49.9-49.9 49.9-27.6 0-49.9-22.3-49.9-49.9 0-27.5 22.3-49.8 49.9-49.8zM163.4 685.5c26.5 0 47.9 21.5 47.9 48 0 26.4-21.4 47.9-47.9 47.9s-48-21.5-48-47.9c0-26.5 21.5-48 48-48zm863 3.9c28 0 50.6 22.7 50.6 50.6 0 27.9-22.6 50.5-50.6 50.5-27.9 0-50.5-22.6-50.5-50.5s22.6-50.6 50.5-50.6zM606.3 164.6c29.8 0 54.1 24.2 54.1 54.1 0 29.8-24.3 54.1-54.1 54.1-29.9 0-54.1-24.3-54.1-54.1 0-29.9 24.2-54.1 54.1-54.1zm0 0"/><path fill="#f5f5f5" fill-rule="evenodd" d="M1005.8 301.6v-42.8h12.7c5.93 0 10.2.87 12.8 2.6 2.6 1.66 3.9 4.36 3.9 8.1 0 2.46-.63 4.53-1.9 6.2s-3.13 2.73-5.6 3.2v.3c3.07.53 5.3 1.63 6.7 3.3 1.4 1.67 2.1 3.93 2.1 6.8 0 3.87-1.33 6.9-4 9.1-2.73 2.13-6.46 3.2-11.2 3.2h-15.5zm7-37v11.9h6.7c2.93 0 5.07-.46 6.4-1.4 1.4-.93 2.1-2.53 2.1-4.8 0-2-.73-3.43-2.2-4.3-1.47-.93-3.8-1.4-7-1.4h-6zm7.1 17.6h-7.1v13.5h7.5c2.93 0 5.13-.57 6.6-1.7 1.53-1.13 2.3-2.9 2.3-5.3 0-2.2-.77-3.83-2.3-4.9-1.53-1.07-3.86-1.6-7-1.6zM194.4 753.3h-7.5l-4.3-11.9h-16.3l-4.2 11.9h-7.4l16-43.1h7.7l16 43.1zm-26.1-17.9h12.5l-4-11.6c-.33-.8-.73-2.03-1.2-3.7a129.3 129.3 0 0 1-1.1-3.7c-.53 2.4-1.3 5.03-2.3 7.9l-3.9 11.1zm843.5 19.7v-42.8h12.7c5.93 0 10.2.83 12.8 2.5 2.67 1.73 4 4.46 4 8.2 0 2.46-.67 4.53-2 6.2-1.27 1.67-3.1 2.7-5.5 3.1v.3c3 .6 5.2 1.73 6.6 3.4 1.4 1.67 2.1 3.93 2.1 6.8 0 3.87-1.33 6.87-4 9-2.67 2.2-6.4 3.3-11.2 3.3h-15.5zm7-37v11.8h6.7c2.93 0 5.07-.43 6.4-1.3 1.33-.93 2-2.53 2-4.8 0-2-.7-3.43-2.1-4.3-1.47-.93-3.8-1.4-7-1.4h-6zm7.1 17.5h-7.1v13.6h7.5c2.93 0 5.13-.57 6.6-1.7 1.53-1.13 2.3-2.9 2.3-5.3 0-2.2-.77-3.87-2.3-5-1.53-1.07-3.86-1.6-7-1.6zm0 0"/><path fill="#fff" d="m610.5 218.5 14.4 22.1h-8L606.1 223l-10.8 17.6h-7.5l14.3-22.3-13.3-20.6h7.8l9.9 16.2 9.9-16.2h7.5l-13.4 20.8zm0 0"/><path stroke="red" d="m877.1 249.7 18.3 2.3-.4 3.1-18.3-2.3.4-3.1zm0 0"/><path fill="#fff" d="m299.66 1057.04.99 1.31-3.32 2.51-1-1.32 3.33-2.5zm0 0"/><path fill="#fff" d="m298.07 1057.55 1.17.98-3.36 4-1.17-.98 3.36-4zm0 0"/><path fill="#fff" d="M297.67 1057.25c1.46 0 2.64.64 2.64 1.43 0 .78-1.18 1.42-2.64 1.42-1.46 0-2.65-.64-2.65-1.42 0-.79 1.19-1.43 2.65-1.43zm0 0"/><path fill="#fff" d="M295.84 1056.98c1.91 0 3.47.78 3.47 1.75s-1.56 1.76-3.47 1.76-3.46-.79-3.46-1.76 1.55-1.75 3.46-1.75zm0 0"/><path fill="#fff" d="m296.36 1057.19 1.95 1.04-2.31 4.34-1.94-1.03 2.3-4.35zm0 0"/><path fill="#fff" d="M295.04 1057.46c1.45 0 2.63.7 2.63 1.55 0 .86-1.18 1.55-2.63 1.55-1.46 0-2.64-.69-2.64-1.55 0-.85 1.18-1.55 2.64-1.55zm0 0"/><path fill="#fff" d="M292.89 1059.58c0-.98.79-1.77 1.77-1.77.55 0 .98.44.98.98v.79a.9.9 0 0 1-.89.9h-.96a.9.9 0 0 1-.9-.9zm0 0"/><path fill="#fff" d="m295.32 1057.6 1.83 1.77-1.9 1.97-1.83-1.77 1.9-1.97zm0 0"/><path fill="#fff" d="M296.16 1057.85c1.11 0 2.01.65 2.01 1.46 0 .8-.9 1.45-2.01 1.45-1.11 0-2-.65-2-1.45 0-.81.9-1.46 2-1.46zm0 0"/><path fill="red" d="m872.06 249.15 24.76 3.04-.64 5.2-24.75-3.04.63-5.2zm0 0"/><path stroke="#000" stroke-width="5" d="M2.5 1197.72V2.5h.38v1195.22H2.5zM1197.69 2.5v-.03h.03v.03h-.03zm0 0"/><path fill="#fff" stroke="#fff" d="M835.806 1112.1v-.93h1.68v.93h-1.68zm0 0"/><path fill="#fff" stroke="#fff" d="M835.336 1113.83v-3.05h1.29v3.05h-1.29zm0 0"/><path fill="#fff" stroke="#fff" d="M835.34 1112.16v-2.23h1.42v2.23h-1.42zm0 0"/><path fill="#fff" stroke="#fff" d="M835.806 1112.37v-1.25h1.29v1.25h-1.29zM297.49 1060.3v-1.66h.76v1.66h-.76zm0 0"/><path stroke="#000" d="M545.907 374.628v-2.37h.41v2.37h-.41zm0 0"/><path stroke="#000" d="M546.049 373.729v-.85h.77v.85h-.77zm0 0"/><path fill="#f5f5f5" fill-rule="evenodd" d="M198.3 318.8h-7.4l-4.3-11.9h-16.4l-4.2 11.9h-7.4l16.1-43h7.6l16 43zm-26.1-18h12.5l-4-11.6c-.27-.8-.66-2.03-1.2-3.7-.53-1.67-.9-2.9-1.1-3.7-.53 2.4-1.3 5.03-2.3 7.9l-3.9 11.1zm0 0"/><path fill="#fff" stroke="#fff" d="M836.75 1112.38h1.13v2.13h-1.13z"/><ellipse cx="838.5" cy="1114.97" stroke="#000" rx="1.85" ry="3.91" transform="matrix(.72937 .67482 -.70584 .69731 1013.86 -228.217)"/><path stroke="#000" d="M545.5 372.38h1.38v2.13h-1.38z" transform="matrix(.64628 .53252 -.56011 .61444 402.925 -146.624)"/><path fill="#f5f5f5" d="M547.88 372.25H551v2.87h-3.12z"/><ellipse cx="548.55" cy="375.93" fill="#f5f5f5" rx="2.5" ry="3.24" transform="rotate(42.184 548.553 375.93)"/><path d="M545.88 369.25h2.06v4.06h-2.06z"/><path stroke="#000" d="M298.5 1060.5h2.25v2.38h-2.25z"/><path fill="#fff" stroke="#fff" d="M297.11 1057.66h1.09v4.13h-1.09z" transform="matrix(.62293 .67292 -.69879 .59986 853.006 223.549)"/></g></svg>